<svg id="Layer_1" data-name="Layer 1" xmlns="http://www.w3.org/2000/svg" viewBox="0 0 485.57 664.95"><defs><style>.cls-1{opacity:0.28;}</style></defs><title>cfox-outline-white-logo-00</title><polygon points="9.97 381.44 9.97 381.44 9.97 381.44 9.97 381.44"/><polygon class="cls-1" points="9.97 381.44 9.97 381.44 9.97 381.44 9.97 381.44"/><path d="M621.17,533.53l48.15-31.46,8.62-5.68,0,0,5.84-3.82V272.8h.2l0-186.19L533.37,319.88H402.84L252.18,86.61l0,243.46h0V493l5.74,3.75.32-.37L468.15,634.78l153.16-101Zm51.29-407.71,0,346.65L543.84,325ZM537.93,336,658.58,474.31,491.22,410a64.51,64.51,0,0,0-11.69-3.26Zm-81.25,70.77A64.51,64.51,0,0,0,445,410l-27.23,10.47-27,9.93-20.08,8.17-93,35.76L398.28,336ZM263.75,125.82,392.37,325,263.79,472.47Zm6.78,364.75,179-68.8a51.43,51.43,0,0,1,12.78-3.11l0,198.45Zm197.58-88.18-58.56-70.95H526.67Zm5.78,16.27a51.46,51.46,0,0,1,12.77,3.11l179.07,68.82L473.93,617.12Z" transform="translate(-225.32 -86.61)"/><path d="M236.08,721.58a19.88,19.88,0,0,0,2.58,10.16,19.57,19.57,0,0,0,6.8,7,17,17,0,0,0,9.06,2.58,16.2,16.2,0,0,0,9.55-2.85,33.05,33.05,0,0,0,6.59-5.93l6.26,7.69a23.82,23.82,0,0,1-5.71,5.54A32.2,32.2,0,0,1,263,750a29.39,29.39,0,0,1-9.66,1.59A26.47,26.47,0,0,1,239,747.6a28.13,28.13,0,0,1-10-10.76,33.58,33.58,0,0,1,0-30.57,28.25,28.25,0,0,1,10-10.7,26.48,26.48,0,0,1,14.27-4,30.63,30.63,0,0,1,14.28,3.24,22.57,22.57,0,0,1,9.33,8.4l-6.26,7.69a21.46,21.46,0,0,0-7.19-6.43,18.15,18.15,0,0,0-9.06-2.69,17.37,17.37,0,0,0-9.33,2.58,18.51,18.51,0,0,0-6.59,7A20.92,20.92,0,0,0,236.08,721.58Z" transform="translate(-225.32 -86.61)"/><path d="M287.56,750.46V669.22h11.31v81.24Z" transform="translate(-225.32 -86.61)"/><path d="M363.42,742.88h-.11a31.74,31.74,0,0,1-9.66,6,34,34,0,0,1-28.71-1.15,27.45,27.45,0,0,1-10.7-10.43,29.62,29.62,0,0,1-3.84-15.1q0-9.66,4.06-16.52a28.12,28.12,0,0,1,10.76-10.54,29.84,29.84,0,0,1,14.6-3.68A25,25,0,0,1,353,695.07a26.16,26.16,0,0,1,9.44,9.83A29.25,29.25,0,0,1,366,719.5l-.11,4.83H321.71a18.49,18.49,0,0,0,6.42,12.35q5.43,4.56,13.78,4.55c4,0,7.28-.74,9.77-2.25a44.65,44.65,0,0,0,6.14-4.33Zm-23.6-41a20.92,20.92,0,0,0-11.31,3c-3.22,2-5.34,5.47-6.36,10.38h32.27v-.77A12.6,12.6,0,0,0,352,708a15.12,15.12,0,0,0-12.13-6Z" transform="translate(-225.32 -86.61)"/><path d="M383.84,692.82,400.64,734l17.45-41.17h11.64l-25.58,57.64H396l-24.37-57.64Z" transform="translate(-225.32 -86.61)"/><path d="M487.91,742.88h-.11a31.74,31.74,0,0,1-9.66,6,34,34,0,0,1-28.7-1.15,27.41,27.41,0,0,1-10.71-10.43,29.62,29.62,0,0,1-3.84-15.1q0-9.66,4.06-16.52a28.19,28.19,0,0,1,10.76-10.54,29.84,29.84,0,0,1,14.6-3.68,25,25,0,0,1,13.17,3.57,26.26,26.26,0,0,1,9.45,9.83,29.35,29.35,0,0,1,3.51,14.6l-.11,4.83H446.2a18.49,18.49,0,0,0,6.42,12.35q5.43,4.56,13.78,4.55c4,0,7.28-.74,9.77-2.25a44.65,44.65,0,0,0,6.14-4.33Zm-23.6-41A20.92,20.92,0,0,0,453,705c-3.22,2-5.34,5.47-6.36,10.38h32.27v-.77a12.6,12.6,0,0,0-2.47-6.59,15.12,15.12,0,0,0-12.13-6Z" transform="translate(-225.32 -86.61)"/><path d="M535,705a12.7,12.7,0,0,0-2.69-.94,14.38,14.38,0,0,0-10.27,1.43,15.65,15.65,0,0,0-5.65,5.16,13.94,13.94,0,0,0-2.25,8v31.84H502.73V692.82h11.42v10.87a21.16,21.16,0,0,1,7.3-8.67,17.69,17.69,0,0,1,10.27-3.41,14.31,14.31,0,0,1,6.25,1.1Z" transform="translate(-225.32 -86.61)"/><path d="M583.77,704.24H570.15v46.21H558.74V704.24h-9.23V693.81h9.23v-7.47a16.34,16.34,0,0,1,17.12-17,14.74,14.74,0,0,1,7.3,1.64,15.93,15.93,0,0,1,4.23,3.19l-3.84,8.67a12.13,12.13,0,0,0-2.86-2,7.44,7.44,0,0,0-3.51-.93q-4,0-5.49,1.86a7,7,0,0,0-1.54,4.61v7.47h13.62Z" transform="translate(-225.32 -86.61)"/><path d="M648.65,721.58a30.6,30.6,0,0,1-3.9,15.54,28.42,28.42,0,0,1-10.54,10.59,30.85,30.85,0,0,1-29.81,0,28.33,28.33,0,0,1-10.59-10.59,32.89,32.89,0,0,1,0-31.07,28.43,28.43,0,0,1,10.59-10.6,30.85,30.85,0,0,1,29.81,0,28.52,28.52,0,0,1,10.54,10.6A30.59,30.59,0,0,1,648.65,721.58Zm-11.53,0a20.75,20.75,0,0,0-2.25-10.26,17.6,17.6,0,0,0-6.42-6.92,17.28,17.28,0,0,0-9.12-2.47,17.52,17.52,0,0,0-9.16,2.47,17.32,17.32,0,0,0-6.48,6.92,24.29,24.29,0,0,0,0,20.42,17.72,17.72,0,0,0,6.48,7,17.19,17.19,0,0,0,9.16,2.52,17,17,0,0,0,9.12-2.52,18,18,0,0,0,6.42-7A20.56,20.56,0,0,0,637.12,721.58Z" transform="translate(-225.32 -86.61)"/><path d="M652.6,750.45l22.17-28.87-22.28-28.76h14.27l15.59,20.31,13.17-20.31h13.39L688.5,721.25l22.39,29.2H697.06l-15.81-20.52-15.37,20.63Z" transform="translate(-225.32 -86.61)"/></svg>