<svg id="Layer_1" data-name="Layer 1" xmlns="http://www.w3.org/2000/svg" viewBox="0 0 514.64 675.74"><defs><style>.cls-1,.cls-7{fill:#f86cff;}.cls-2,.cls-6{fill:#fff;}.cls-2{opacity:0.26;}.cls-3{fill:#4958e2;}.cls-4{fill:#ffd3ff;}.cls-5{fill:#250045;}.cls-7{opacity:0.28;}.cls-8{fill:#f2f2f2;}</style></defs><title>cfox-cartoon-white-logo-ff</title><polygon class="cls-1" points="21 350.38 21 350.38 21 350.38 21 350.38"/><polygon class="cls-2" points="21 350.38 21 350.38 21 350.38 21 350.38"/><polygon class="cls-3" points="21 350.38 21 350.38 21 350.38 21 350.38"/><polygon class="cls-2" points="21 350.38 21 350.38 21 350.38 21 350.38"/><path class="cls-2" d="M301.21,409.16c1.74-.34,3.5-.64,5.25-.89Q303.82,408.65,301.21,409.16Z" transform="translate(-64.18 -61.08)"/><path class="cls-2" d="M289,412.23l1.63-.49Z" transform="translate(-64.18 -61.08)"/><path class="cls-2" d="M316,407.33c.91-.05,1.83-.09,2.75-.12C317.87,407.24,317,407.28,316,407.33Z" transform="translate(-64.18 -61.08)"/><path class="cls-2" d="M300.4,409.32c-2.62.52-5.21,1.14-7.79,1.86,1.68-.46,3.37-.9,5.06-1.28C298.58,409.69,299.49,409.5,300.4,409.32Z" transform="translate(-64.18 -61.08)"/><path class="cls-2" d="M322,407.16v0c-.85,0-1.69,0-2.54.06C320.35,407.18,321.19,407.16,322,407.16Z" transform="translate(-64.18 -61.08)"/><path class="cls-2" d="M306.81,408.22c.91-.13,1.83-.24,2.75-.35C308.64,408,307.72,408.09,306.81,408.22Z" transform="translate(-64.18 -61.08)"/><path class="cls-2" d="M310.33,407.79c1.71-.18,3.41-.32,5.12-.43C313.74,407.47,312,407.61,310.33,407.79Z" transform="translate(-64.18 -61.08)"/><polygon class="cls-1" points="165.41 372.19 199.23 360.16 168.14 371.22 165.41 372.19"/><polygon class="cls-2" points="165.41 372.19 199.23 360.16 168.14 371.22 165.41 372.19"/><polygon class="cls-3" points="66.94 383.71 39.55 416.95 39.55 416.95 39.55 416.95 66.94 383.71 66.94 383.71"/><polygon class="cls-2" points="66.94 383.71 39.55 416.95 39.55 416.95 39.55 416.95 66.94 383.71 66.94 383.71"/><polygon class="cls-3" points="162.24 268.05 182.24 243.79 162.24 268.05 162.24 268.05"/><polygon class="cls-2" points="162.24 268.05 182.24 243.79 162.24 268.05 162.24 268.05"/><path class="cls-4" d="M285.22,413.49c1.26-.45,2.52-.86,3.79-1.26C287.74,412.63,286.48,413,285.22,413.49Z" transform="translate(-64.18 -61.08)"/><path class="cls-2" d="M285.22,413.49c1.26-.45,2.52-.86,3.79-1.26C287.74,412.63,286.48,413,285.22,413.49Z" transform="translate(-64.18 -61.08)"/><path class="cls-4" d="M290.64,411.74c.65-.2,1.31-.38,2-.56C292,411.36,291.3,411.54,290.64,411.74Z" transform="translate(-64.18 -61.08)"/><path class="cls-2" d="M290.64,411.74c.65-.2,1.31-.38,2-.56C292,411.36,291.3,411.54,290.64,411.74Z" transform="translate(-64.18 -61.08)"/><polygon class="cls-5" points="152.39 376.82 165.41 372.19 152.39 376.82 152.39 376.82"/><polygon class="cls-2" points="152.39 376.82 165.41 372.19 152.39 376.82 152.39 376.82"/><polygon class="cls-5" points="207.13 357.35 207.13 357.35 199.23 360.16 207.13 357.35"/><polygon class="cls-2" points="207.13 357.35 207.13 357.35 199.23 360.16 207.13 357.35"/><path d="M216.57,437.9l13-4.63,2.73-1,31.09-11.05,7.9-2.81-30.42-8.75C225,405.28,210.58,422.56,216.57,437.9Z" transform="translate(-64.18 -61.08)"/><path class="cls-5" d="M306.46,408.27l.35,0Z" transform="translate(-64.18 -61.08)"/><path class="cls-2" d="M306.46,408.27l.35,0Z" transform="translate(-64.18 -61.08)"/><path class="cls-5" d="M315.45,407.36l.59,0Z" transform="translate(-64.18 -61.08)"/><path class="cls-2" d="M315.45,407.36l.59,0Z" transform="translate(-64.18 -61.08)"/><path class="cls-5" d="M300.4,409.32l.81-.16Z" transform="translate(-64.18 -61.08)"/><path class="cls-2" d="M300.4,409.32l.81-.16Z" transform="translate(-64.18 -61.08)"/><path class="cls-5" d="M318.79,407.21h0Z" transform="translate(-64.18 -61.08)"/><path class="cls-2" d="M318.79,407.21h0Z" transform="translate(-64.18 -61.08)"/><polygon class="cls-6" points="66.94 104.35 66.94 385.69 162.92 269.21 66.94 104.35"/><path class="cls-7" d="M351.47,411.18c-2.58-.72-5.17-1.34-7.79-1.86.91.18,1.82.37,2.73.58Q348.95,410.47,351.47,411.18Z" transform="translate(-64.18 -61.08)"/><polygon class="cls-7" points="353.48 268.05 333.49 243.79 353.48 268.05 353.48 268.05"/><path class="cls-7" d="M540.36,478,513,444.79h0L540.36,478l-117.5-41.78-9.64-3.43L374,418.87h0l-15.11-5.37h0Z" transform="translate(-64.18 -61.08)"/><path class="cls-7" d="M353.44,411.74l1.63.49Z" transform="translate(-64.18 -61.08)"/><path class="cls-7" d="M328.63,407.36c1.71.11,3.41.25,5.12.43C332,407.61,330.34,407.47,328.63,407.36Z" transform="translate(-64.18 -61.08)"/><path class="cls-7" d="M334.52,407.87c.92.11,1.84.22,2.75.35C336.36,408.09,335.44,408,334.52,407.87Z" transform="translate(-64.18 -61.08)"/><path class="cls-7" d="M325.29,407.21c.92,0,1.84.07,2.75.12C327.13,407.28,326.21,407.24,325.29,407.21Z" transform="translate(-64.18 -61.08)"/><path class="cls-7" d="M337.61,408.27q2.64.38,5.27.89Q340.26,408.65,337.61,408.27Z" transform="translate(-64.18 -61.08)"/><path class="cls-7" d="M324.58,407.2c-.85,0-1.69-.06-2.54-.06v0C322.89,407.16,323.73,407.18,324.58,407.2Z" transform="translate(-64.18 -61.08)"/><path class="cls-8" d="M103.72,478,322,620.43h0L540.36,478h0L513,444.79v2L417,330.3l.68-1.16L513,165.91V444.79L540.36,478V61.08L397.67,304.88H246.42L103.72,61.08V478l27.4-33.24V165.91l95.3,163.23.68,1.16-96,116.47v-2L103.73,478,216.57,437.9c-6-15.34,8.45-32.62,24.32-28.21l30.42,8.75m29.09-9.12.81-.16c1.74-.34,3.5-.64,5.25-.89l.35,0c.91-.13,1.83-.24,2.75-.35l.77-.08c1.71-.18,3.41-.32,5.12-.43l.59,0c.91-.05,1.83-.09,2.75-.12h.71c.85,0,1.69-.06,2.54-.06s1.69,0,2.54.06h.71c.92,0,1.84.07,2.75.12l.59,0c1.71.11,3.41.25,5.12.43l.77.08c.92.11,1.84.22,2.75.35l.34,0q2.64.38,5.27.89l.8.16c.89.17,1.77.43,2.65.63l-2.22,1.53a31.22,31.22,0,0,1-44.14,0L297.75,410C298.63,409.75,299.51,409.49,300.4,409.32Zm21.64,132h0L229.78,481.1l14.51-5.16L322,526.66h0l77.75-50.72,14.51,5.16Z" transform="translate(-64.18 -61.08)"/><polygon class="cls-4" points="494.83 398.3 494.83 398.3 494.83 398.3 494.83 398.3"/><polygon class="cls-7" points="494.83 398.3 494.83 398.3 494.83 398.3 494.83 398.3"/><polygon class="cls-5" points="350.12 420.02 335.61 414.86 257.86 465.57 257.86 480.2 350.12 420.02"/><polygon points="335.61 414.86 257.86 465.57 257.86 465.57 180.11 414.86 165.6 420.02 257.86 480.2 257.86 480.2 350.12 420.02 335.61 414.86"/><polygon class="cls-5" points="349.04 371.74 358.68 375.17 309.81 357.79 309.81 357.79 349.04 371.74"/><polygon class="cls-7" points="349.04 371.74 358.68 375.17 309.81 357.79 309.81 357.79 349.04 371.74"/><path d="M428.72,438.34c6-15.35-10.44-33.06-26.31-28.65L374,418.87l48.87,17.38Z" transform="translate(-64.18 -61.08)"/><path d="M343.68,409.32l-.8-.16q-2.62-.51-5.27-.89l-.34,0c-.91-.13-1.83-.24-2.75-.35l-.77-.08c-1.71-.18-3.41-.32-5.12-.43l-.59,0c-.91-.05-1.83-.09-2.75-.12h-.71c-.85,0-1.69,0-2.54,0s-1.69,0-2.54,0h-.71c-.92,0-1.84.07-2.75.12l-.59,0c-1.71.11-3.41.25-5.12.43l-.77.08c-.92.11-1.84.22-2.75.35l-.35,0c-1.75.25-3.51.55-5.25.89l-.81.16c-.91.18-1.82.37-2.73.58l2.3,1.58a31.22,31.22,0,0,0,44.14,0l2.3-1.58C345.5,409.69,344.59,409.5,343.68,409.32Z" transform="translate(-64.18 -61.08)"/><path class="cls-5" d="M337.27,408.22l.34,0Z" transform="translate(-64.18 -61.08)"/><path class="cls-7" d="M337.27,408.22l.34,0Z" transform="translate(-64.18 -61.08)"/><path class="cls-5" d="M328,407.33l.59,0Z" transform="translate(-64.18 -61.08)"/><path class="cls-7" d="M328,407.33l.59,0Z" transform="translate(-64.18 -61.08)"/><path class="cls-5" d="M333.75,407.79l.77.08Z" transform="translate(-64.18 -61.08)"/><path class="cls-7" d="M333.75,407.79l.77.08Z" transform="translate(-64.18 -61.08)"/><path class="cls-5" d="M324.58,407.2h0Z" transform="translate(-64.18 -61.08)"/><path class="cls-7" d="M324.58,407.2h0Z" transform="translate(-64.18 -61.08)"/><path class="cls-5" d="M342.88,409.16l.8.16Z" transform="translate(-64.18 -61.08)"/><path class="cls-7" d="M342.88,409.16l.8.16Z" transform="translate(-64.18 -61.08)"/><polygon class="cls-6" points="448.79 104.35 352.8 269.21 448.79 385.69 448.79 104.35"/><path class="cls-6" d="M75.58,705.06a21,21,0,0,0,2.74,10.76,20.62,20.62,0,0,0,7.21,7.45,18.15,18.15,0,0,0,9.6,2.73,17.12,17.12,0,0,0,10.12-3,35,35,0,0,0,7-6.28l6.64,8.14a25,25,0,0,1-6.05,5.88,34.09,34.09,0,0,1-8.73,4.42,31.29,31.29,0,0,1-10.24,1.69,28.15,28.15,0,0,1-15.13-4.19,29.84,29.84,0,0,1-10.64-11.41,35.6,35.6,0,0,1,0-32.4,29.93,29.93,0,0,1,10.64-11.34,28.06,28.06,0,0,1,15.13-4.19A32.46,32.46,0,0,1,109,676.73a24,24,0,0,1,9.89,8.9l-6.64,8.15a22.5,22.5,0,0,0-7.62-6.81,19.19,19.19,0,0,0-9.6-2.85,18.47,18.47,0,0,0-9.89,2.73,19.63,19.63,0,0,0-7,7.45A22.25,22.25,0,0,0,75.58,705.06Z" transform="translate(-64.18 -61.08)"/><path class="cls-6" d="M130.15,735.66v-86.1h12v86.1Z" transform="translate(-64.18 -61.08)"/><path class="cls-6" d="M210.55,727.63h-.12a33.41,33.41,0,0,1-10.24,6.4,35.92,35.92,0,0,1-30.42-1.22,29.06,29.06,0,0,1-11.35-11,31.41,31.41,0,0,1-4.07-16q0-10.23,4.31-17.51a29.73,29.73,0,0,1,11.4-11.17,31.6,31.6,0,0,1,15.47-3.9,26.59,26.59,0,0,1,14,3.78,27.75,27.75,0,0,1,10,10.42,31.1,31.1,0,0,1,3.73,15.47l-.12,5.12H166.34a19.54,19.54,0,0,0,6.8,13.09q5.76,4.83,14.61,4.83,6.39,0,10.35-2.39a48.26,48.26,0,0,0,6.52-4.59Zm-25-43.4a22.16,22.16,0,0,0-12,3.2q-5.12,3.21-6.75,11H201v-.81a13.38,13.38,0,0,0-2.62-7,16,16,0,0,0-12.86-6.4Z" transform="translate(-64.18 -61.08)"/><path class="cls-6" d="M232.19,674.58,250,718.21l18.5-43.63h12.34l-27.11,61.08h-8.61l-25.83-61.08Z" transform="translate(-64.18 -61.08)"/><path class="cls-6" d="M342.49,727.63h-.11a33.66,33.66,0,0,1-10.24,6.4,35.94,35.94,0,0,1-30.43-1.22,29,29,0,0,1-11.34-11,31.32,31.32,0,0,1-4.07-16q0-10.23,4.3-17.51A29.73,29.73,0,0,1,302,677.08a31.61,31.61,0,0,1,15.48-3.9,26.56,26.56,0,0,1,14,3.78,27.85,27.85,0,0,1,10,10.42,31.1,31.1,0,0,1,3.72,15.47l-.12,5.12H298.28a19.59,19.59,0,0,0,6.81,13.09q5.76,4.83,14.6,4.83c4.26,0,7.72-.8,10.35-2.39a48.26,48.26,0,0,0,6.52-4.59Zm-25-43.4a22.2,22.2,0,0,0-12,3.2q-5.12,3.21-6.74,11H333v-.81a13.37,13.37,0,0,0-2.61-7,16,16,0,0,0-12.86-6.4Z" transform="translate(-64.18 -61.08)"/><path class="cls-6" d="M392.41,687.49a14.69,14.69,0,0,0-2.85-1,15.21,15.21,0,0,0-3.55-.4,15.43,15.43,0,0,0-7.33,1.92,16.46,16.46,0,0,0-6,5.46,14.79,14.79,0,0,0-2.39,8.44v33.74H358.2V674.58h12.1V686.1a22.5,22.5,0,0,1,7.74-9.2,18.76,18.76,0,0,1,10.88-3.6,15.25,15.25,0,0,1,6.63,1.16Z" transform="translate(-64.18 -61.08)"/><path class="cls-6" d="M444.08,686.68H429.66v49h-12.1v-49h-9.78V675.62h9.78v-7.91a17.53,17.53,0,0,1,5.06-13q5.06-5.07,13.09-5.06a15.54,15.54,0,0,1,7.73,1.74,16.87,16.87,0,0,1,4.48,3.38L443.85,664a12.32,12.32,0,0,0-3-2.15,7.92,7.92,0,0,0-3.73-1q-4.19,0-5.81,2a7.42,7.42,0,0,0-1.63,4.89v7.91h14.42Z" transform="translate(-64.18 -61.08)"/><path class="cls-6" d="M512.85,705.06a32.34,32.34,0,0,1-4.13,16.46,30.17,30.17,0,0,1-11.17,11.23,32.68,32.68,0,0,1-31.59,0,30,30,0,0,1-11.23-11.23,34.87,34.87,0,0,1,0-32.92A30,30,0,0,1,466,677.37a32.68,32.68,0,0,1,31.59,0,30.17,30.17,0,0,1,11.17,11.23A32.34,32.34,0,0,1,512.85,705.06Zm-12.22,0a22,22,0,0,0-2.38-10.88,18.62,18.62,0,0,0-6.81-7.33,18.27,18.27,0,0,0-9.66-2.62,18.37,18.37,0,0,0-16.58,9.95,21.9,21.9,0,0,0-2.38,10.88,21.63,21.63,0,0,0,2.38,10.76,18.84,18.84,0,0,0,6.87,7.39,18.15,18.15,0,0,0,9.71,2.68,17.88,17.88,0,0,0,9.66-2.68,19,19,0,0,0,6.81-7.39A21.74,21.74,0,0,0,500.63,705.06Z" transform="translate(-64.18 -61.08)"/><path class="cls-6" d="M517,735.66l23.5-30.6-23.62-30.48h15.13l16.52,21.52,14-21.52h14.2l-21.65,30.13,23.74,30.95H564.16L547.4,713.9l-16.28,21.88Z" transform="translate(-64.18 -61.08)"/></svg>