<svg id="Layer_1" data-name="Layer 1" xmlns="http://www.w3.org/2000/svg" viewBox="0 0 516.29 671.74"><defs><style>.cls-1,.cls-6{fill:#fff;}.cls-1{opacity:0.26;}.cls-2,.cls-8{fill:#f86cff;}.cls-3{fill:#4958e2;}.cls-4{fill:#ffd3ff;}.cls-5{fill:#250045;}.cls-7{fill:#333;}.cls-8{opacity:0.28;}.cls-9{fill:#1a1a1a;}</style></defs><title>cfox-cartoon-black-logo-00</title><path class="cls-1" d="M330.38,402.35q2.63-.51,5.27-.89Q333,401.84,330.38,402.35Z" transform="translate(-93.05 -53.16)"/><path class="cls-1" d="M318.14,405.43l1.64-.49Z" transform="translate(-93.05 -53.16)"/><path class="cls-1" d="M345.26,400.51c.92-.05,1.84-.09,2.76-.11C347.1,400.42,346.18,400.46,345.26,400.51Z" transform="translate(-93.05 -53.16)"/><path class="cls-1" d="M329.56,402.51c-2.62.52-5.22,1.15-7.81,1.87q2.53-.7,5.08-1.29C327.74,402.88,328.65,402.69,329.56,402.51Z" transform="translate(-93.05 -53.16)"/><path class="cls-1" d="M351.28,400.34h0c-.85,0-1.7,0-2.55.05C349.58,400.36,350.43,400.34,351.28,400.34Z" transform="translate(-93.05 -53.16)"/><path class="cls-1" d="M336,401.41c.92-.13,1.84-.24,2.76-.35C337.84,401.17,336.92,401.28,336,401.41Z" transform="translate(-93.05 -53.16)"/><path class="cls-1" d="M339.53,401c1.71-.19,3.42-.33,5.14-.43C343,400.65,341.24,400.79,339.53,401Z" transform="translate(-93.05 -53.16)"/><polygon class="cls-2" points="165.48 373.38 199.4 361.32 168.22 372.41 165.48 373.38"/><polygon class="cls-1" points="165.48 373.38 199.4 361.32 168.22 372.41 165.48 373.38"/><polygon class="cls-3" points="66.69 384.94 39.21 418.29 39.21 418.29 39.21 418.29 66.69 384.94 66.69 384.94"/><polygon class="cls-1" points="66.69 384.94 39.21 418.29 39.21 418.29 39.21 418.29 66.69 384.94 66.69 384.94"/><polygon class="cls-3" points="162.3 268.91 182.36 244.57 162.3 268.91 162.3 268.91"/><polygon class="cls-1" points="162.3 268.91 182.36 244.57 162.3 268.91 162.3 268.91"/><path class="cls-4" d="M314.34,406.69c1.26-.44,2.53-.86,3.8-1.26C316.87,405.83,315.6,406.25,314.34,406.69Z" transform="translate(-93.05 -53.16)"/><path class="cls-1" d="M314.34,406.69c1.26-.44,2.53-.86,3.8-1.26C316.87,405.83,315.6,406.25,314.34,406.69Z" transform="translate(-93.05 -53.16)"/><path class="cls-4" d="M319.78,404.94c.65-.2,1.31-.38,2-.56C321.09,404.56,320.43,404.74,319.78,404.94Z" transform="translate(-93.05 -53.16)"/><path class="cls-1" d="M319.78,404.94c.65-.2,1.31-.38,2-.56C321.09,404.56,320.43,404.74,319.78,404.94Z" transform="translate(-93.05 -53.16)"/><polygon class="cls-5" points="152.42 378.03 165.48 373.38 152.42 378.03 152.42 378.03"/><polygon class="cls-1" points="152.42 378.03 165.48 373.38 152.42 378.03 152.42 378.03"/><polygon class="cls-5" points="207.34 358.5 207.34 358.5 199.4 361.32 207.34 358.5"/><polygon class="cls-1" points="207.34 358.5 207.34 358.5 199.4 361.32 207.34 358.5"/><path class="cls-6" d="M245.47,431.19l13.06-4.65,2.74-1,31.19-11.09,7.93-2.82-30.52-8.78C254,398.46,239.46,415.79,245.47,431.19Z" transform="translate(-93.05 -53.16)"/><path class="cls-5" d="M335.65,401.46l.35,0Z" transform="translate(-93.05 -53.16)"/><path class="cls-1" d="M335.65,401.46l.35,0Z" transform="translate(-93.05 -53.16)"/><path class="cls-5" d="M344.67,400.55l.59,0Z" transform="translate(-93.05 -53.16)"/><path class="cls-1" d="M344.67,400.55l.59,0Z" transform="translate(-93.05 -53.16)"/><path class="cls-5" d="M329.56,402.51l.82-.16Z" transform="translate(-93.05 -53.16)"/><path class="cls-1" d="M329.56,402.51l.82-.16Z" transform="translate(-93.05 -53.16)"/><path class="cls-5" d="M348,400.4l.71,0Z" transform="translate(-93.05 -53.16)"/><path class="cls-1" d="M348,400.4l.71,0Z" transform="translate(-93.05 -53.16)"/><polygon class="cls-7" points="66.69 104.69 66.69 386.93 162.98 270.07 66.69 104.69"/><path class="cls-8" d="M380.8,404.38c-2.58-.72-5.19-1.35-7.81-1.87.91.18,1.82.37,2.73.58C377.42,403.47,379.12,403.91,380.8,404.38Z" transform="translate(-93.05 -53.16)"/><polygon class="cls-8" points="354.15 268.91 334.09 244.57 354.15 268.91 354.15 268.91"/><path class="cls-8" d="M570.29,471.44,542.81,438.1h0l27.48,33.34L452.42,429.53l-9.68-3.44-39.35-14h0l-15.16-5.39h0Z" transform="translate(-93.05 -53.16)"/><path class="cls-8" d="M382.78,404.94l1.63.49Z" transform="translate(-93.05 -53.16)"/><path class="cls-8" d="M357.89,400.55c1.71.1,3.42.24,5.13.43C361.31,400.79,359.6,400.65,357.89,400.55Z" transform="translate(-93.05 -53.16)"/><path class="cls-8" d="M363.8,401.06c.92.11,1.84.22,2.76.35C365.64,401.28,364.72,401.17,363.8,401.06Z" transform="translate(-93.05 -53.16)"/><path class="cls-8" d="M354.54,400.4c.92,0,1.84.06,2.76.11C356.38,400.46,355.46,400.42,354.54,400.4Z" transform="translate(-93.05 -53.16)"/><path class="cls-8" d="M366.9,401.46q2.66.38,5.28.89Q369.56,401.84,366.9,401.46Z" transform="translate(-93.05 -53.16)"/><path class="cls-8" d="M353.83,400.38c-.85,0-1.7-.05-2.55-.05h0C352.13,400.34,353,400.36,353.83,400.38Z" transform="translate(-93.05 -53.16)"/><path class="cls-9" d="M132.26,471.44l219,142.86h0l219-142.86h0L542.81,438.1v2L446.52,323.24l.68-1.17,95.61-163.75V438.1l27.48,33.34V53.16L427.15,297.73H275.41L132.26,53.16V471.44l27.48-33.34V158.32l95.61,163.75.68,1.17L159.74,440.09v-2l-27.48,33.34,113.21-40.25c-6-15.4,8.48-32.73,24.4-28.31l30.52,8.78m29.17-9.15.82-.16q2.63-.51,5.27-.89l.35,0c.92-.13,1.84-.24,2.76-.35l.77-.08c1.71-.19,3.42-.33,5.14-.43l.59,0,2.76-.12h.71c.85,0,1.7-.05,2.55-.05s1.7,0,2.55.05h.71l2.76.12.59,0c1.71.1,3.42.24,5.13.43l.78.08c.92.11,1.84.22,2.76.35l.34,0q2.66.38,5.28.89l.81.16c.89.18,1.77.43,2.66.63l-2.23,1.53a31.31,31.31,0,0,1-44.28,0l-2.23-1.53C327.8,402.94,328.67,402.69,329.56,402.51Zm21.72,132.38h0l-92.56-60.37,14.56-5.17,78,50.88h0l78-50.88,14.55,5.17Z" transform="translate(-93.05 -53.16)"/><polygon class="cls-4" points="495.95 399.57 495.95 399.57 495.95 399.57 495.95 399.57"/><polygon class="cls-8" points="495.95 399.57 495.95 399.57 495.95 399.57 495.95 399.57"/><polygon class="cls-5" points="350.78 421.36 336.23 416.19 258.23 467.07 258.23 481.73 350.78 421.36"/><polygon class="cls-6" points="336.23 416.19 258.23 467.07 258.23 467.07 180.22 416.19 165.67 421.36 258.23 481.73 258.23 481.73 350.78 421.36 336.23 416.19"/><polygon class="cls-5" points="349.69 372.93 359.37 376.37 310.34 358.93 310.34 358.93 349.69 372.93"/><polygon class="cls-8" points="349.69 372.93 359.37 376.37 310.34 358.93 310.34 358.93 349.69 372.93"/><path class="cls-6" d="M458.3,431.62c6-15.4-10.48-33.16-26.4-28.74l-28.51,9.21,49,17.44Z" transform="translate(-93.05 -53.16)"/><path class="cls-6" d="M373,402.51l-.81-.16q-2.62-.51-5.28-.89l-.34,0c-.92-.13-1.84-.24-2.76-.35L363,401c-1.71-.19-3.42-.33-5.13-.43l-.59,0-2.76-.12h-.71c-.85,0-1.7,0-2.55,0s-1.7,0-2.55,0H348c-.92,0-1.85.07-2.76.12l-.59,0c-1.72.1-3.43.24-5.14.43l-.77.08c-.92.11-1.84.22-2.76.35l-.35,0q-2.64.38-5.27.89l-.82.16c-.91.18-1.82.37-2.73.58l2.31,1.58a31.31,31.31,0,0,0,44.28,0l2.3-1.58C374.81,402.88,373.9,402.69,373,402.51Z" transform="translate(-93.05 -53.16)"/><path class="cls-5" d="M366.56,401.41l.34,0Z" transform="translate(-93.05 -53.16)"/><path class="cls-8" d="M366.56,401.41l.34,0Z" transform="translate(-93.05 -53.16)"/><path class="cls-5" d="M357.3,400.51l.59,0Z" transform="translate(-93.05 -53.16)"/><path class="cls-8" d="M357.3,400.51l.59,0Z" transform="translate(-93.05 -53.16)"/><path class="cls-5" d="M363,401l.78.08Z" transform="translate(-93.05 -53.16)"/><path class="cls-8" d="M363,401l.78.08Z" transform="translate(-93.05 -53.16)"/><path class="cls-5" d="M353.83,400.38l.71,0Z" transform="translate(-93.05 -53.16)"/><path class="cls-8" d="M353.83,400.38l.71,0Z" transform="translate(-93.05 -53.16)"/><path class="cls-5" d="M372.18,402.35l.81.16Z" transform="translate(-93.05 -53.16)"/><path class="cls-8" d="M372.18,402.35l.81.16Z" transform="translate(-93.05 -53.16)"/><polygon class="cls-7" points="449.76 104.69 353.47 270.07 449.76 386.93 449.76 104.69"/><path class="cls-9" d="M104.49,693a21.13,21.13,0,0,0,2.74,10.8,20.84,20.84,0,0,0,7.24,7.47,18.12,18.12,0,0,0,9.63,2.74,17.19,17.19,0,0,0,10.16-3,35.19,35.19,0,0,0,7-6.3l6.65,8.17a25.16,25.16,0,0,1-6.07,5.9,34.24,34.24,0,0,1-8.75,4.43,31.25,31.25,0,0,1-10.27,1.69,28.19,28.19,0,0,1-15.18-4.2A30,30,0,0,1,97,709.26a35.72,35.72,0,0,1,0-32.5,30.17,30.17,0,0,1,10.68-11.39,28.19,28.19,0,0,1,15.18-4.2A32.48,32.48,0,0,1,138,664.62a23.9,23.9,0,0,1,9.92,8.93l-6.65,8.17a22.66,22.66,0,0,0-7.65-6.83A19.24,19.24,0,0,0,124,672a18.46,18.46,0,0,0-9.92,2.74,19.59,19.59,0,0,0-7,7.47A22.28,22.28,0,0,0,104.49,693Z" transform="translate(-93.05 -53.16)"/><path class="cls-9" d="M159.23,723.74V637.36h12v86.38Z" transform="translate(-93.05 -53.16)"/><path class="cls-9" d="M239.89,715.68h-.12a33.42,33.42,0,0,1-10.27,6.42A36.14,36.14,0,0,1,199,720.88a29.11,29.11,0,0,1-11.38-11.09,31.41,31.41,0,0,1-4.09-16q0-10.28,4.32-17.57A29.77,29.77,0,0,1,199.27,665a31.69,31.69,0,0,1,15.52-3.91,26.62,26.62,0,0,1,14,3.79,27.86,27.86,0,0,1,10,10.45,31.16,31.16,0,0,1,3.73,15.52l-.11,5.14H195.53a19.67,19.67,0,0,0,6.83,13.13q5.77,4.85,14.65,4.84,6.42,0,10.39-2.39a48.29,48.29,0,0,0,6.54-4.61Zm-25.1-43.54a22.28,22.28,0,0,0-12,3.21c-3.42,2.15-5.68,5.82-6.77,11h34.32v-.82a13.46,13.46,0,0,0-2.63-7,16.08,16.08,0,0,0-12.9-6.42Z" transform="translate(-93.05 -53.16)"/><path class="cls-9" d="M261.6,662.46l17.86,43.77L298,662.46h12.37L283.2,723.74h-8.64l-25.92-61.28Z" transform="translate(-93.05 -53.16)"/><path class="cls-9" d="M372.26,715.68h-.12a33.54,33.54,0,0,1-10.27,6.42,36.17,36.17,0,0,1-30.53-1.22A29.24,29.24,0,0,1,320,709.79a31.51,31.51,0,0,1-4.08-16q0-10.28,4.32-17.57A29.7,29.7,0,0,1,331.64,665a31.66,31.66,0,0,1,15.52-3.91,26.62,26.62,0,0,1,14,3.79,27.94,27.94,0,0,1,10,10.45,31.16,31.16,0,0,1,3.73,15.52l-.12,5.14H327.9a19.67,19.67,0,0,0,6.83,13.13q5.77,4.85,14.65,4.84,6.42,0,10.39-2.39a47.5,47.5,0,0,0,6.53-4.61Zm-25.1-43.54a22.28,22.28,0,0,0-12,3.21c-3.43,2.15-5.68,5.82-6.77,11h34.31v-.82a13.36,13.36,0,0,0-2.62-7,16.08,16.08,0,0,0-12.9-6.42Z" transform="translate(-93.05 -53.16)"/><path class="cls-9" d="M422.33,675.41a13.37,13.37,0,0,0-2.86-1,15.17,15.17,0,0,0-10.91,1.52,16.41,16.41,0,0,0-6,5.48,14.81,14.81,0,0,0-2.4,8.47v33.85H388V662.46h12.14V674a22.47,22.47,0,0,1,7.77-9.22,18.81,18.81,0,0,1,10.91-3.62,15.18,15.18,0,0,1,6.65,1.17Z" transform="translate(-93.05 -53.16)"/><path class="cls-9" d="M474.17,674.59H459.7v49.15H447.56V674.59h-9.81V663.51h9.81v-7.94a17.63,17.63,0,0,1,5.08-13q5.07-5.07,13.13-5.07a15.55,15.55,0,0,1,7.76,1.75,16.73,16.73,0,0,1,4.49,3.38l-4.08,9.22a13.12,13.12,0,0,0-3-2.16,7.89,7.89,0,0,0-3.73-1q-4.2,0-5.84,2a7.43,7.43,0,0,0-1.63,4.9v7.94h14.47Z" transform="translate(-93.05 -53.16)"/><path class="cls-9" d="M543.16,693A32.44,32.44,0,0,1,539,709.55a30.28,30.28,0,0,1-11.2,11.27,32.81,32.81,0,0,1-31.69,0,30.1,30.1,0,0,1-11.27-11.27,35,35,0,0,1,0-33,30,30,0,0,1,11.27-11.26,32.74,32.74,0,0,1,31.69,0A30.18,30.18,0,0,1,539,676.52,32.48,32.48,0,0,1,543.16,693Zm-12.26,0a22,22,0,0,0-2.39-10.92,18.66,18.66,0,0,0-6.83-7.35,18.3,18.3,0,0,0-9.69-2.63,18.4,18.4,0,0,0-16.63,10A22,22,0,0,0,493,693a21.75,21.75,0,0,0,2.4,10.79,18.88,18.88,0,0,0,6.88,7.42,18.28,18.28,0,0,0,9.75,2.68,18,18,0,0,0,9.69-2.68,19.06,19.06,0,0,0,6.83-7.42A21.75,21.75,0,0,0,530.9,693Z" transform="translate(-93.05 -53.16)"/><path class="cls-9" d="M547.36,723.74,570.94,693l-23.7-30.59h15.18L579,684.05l14-21.6h14.24l-21.71,30.24,23.81,31H594.63l-16.81-21.83-16.34,21.94Z" transform="translate(-93.05 -53.16)"/></svg>