<svg id="Layer_1" data-name="Layer 1" xmlns="http://www.w3.org/2000/svg" xmlns:xlink="http://www.w3.org/1999/xlink" viewBox="0 0 498.35 670.91"><defs><style>.cls-1{fill:#fff;}.cls-2{fill:#f86cff;}.cls-3{fill:#fa92ff;}.cls-4{fill:#4958e2;}.cls-5{fill:#7883ea;}.cls-6{fill:#9ba3ef;}.cls-7{fill:#ffd3ff;}.cls-8{fill:#ffdeff;}.cls-9{fill:#250045;}.cls-10{fill:#5d4275;}.cls-11{fill:#ffe7ff;}.cls-12{fill:#fbaeff;}.cls-13{fill:#99c7ff;}.cls-14{fill:#b5bbf3;}.cls-15{fill:#b3d5ff;}.cls-16{fill:#c7e0ff;}.cls-17{fill:#fdd6ff;}.cls-18{fill:#7a5eea;}.cls-19{fill:#fdb6ff;}.cls-20{fill:#601e79;}.cls-21{fill:#b3aeff;}.cls-22{fill:#ffedff;}.cls-23{fill:#1a1a1a;}.cls-24{fill:url(#linear-gradient);}.cls-25{fill:url(#linear-gradient-2);}.cls-26{fill:url(#linear-gradient-3);}</style><linearGradient id="linear-gradient" x1="734.92" y1="825.86" x2="519.36" y2="733.15" gradientUnits="userSpaceOnUse"><stop offset="0" stop-color="#1f4dcc"/><stop offset="0.5" stop-color="#9aceff"/><stop offset="1" stop-color="#ff94ff"/></linearGradient><linearGradient id="linear-gradient-2" x1="738.6" y1="817.29" x2="523.05" y2="724.58" xlink:href="#linear-gradient"/><linearGradient id="linear-gradient-3" x1="748.43" y1="794.45" x2="532.88" y2="701.74" xlink:href="#linear-gradient"/></defs><title>cleverfox-cartoon-logo-00</title><path class="cls-1" d="M415.06,455l-1.84.49,1.84-.49m.05,0,0,0,0,0" transform="translate(-193.17 -116.46)"/><path class="cls-1" d="M441.73,451.57c-.82,0-1.64,0-2.47.05l2.47,0v0" transform="translate(-193.17 -116.46)"/><polyline class="cls-2" points="159.03 360.41 191.78 348.77 161.67 359.47 159.03 360.41"/><path class="cls-2" d="M349.13,376l.66,1.12L256.84,490V488l-26.52,32.19,109.27-38.86c-5.79-14.86,8.18-31.59,23.55-27.32l29.47,8.47,13.44-4.79h0c1.22-.44,2.44-.83,3.67-1.22l1.58-.48c.63-.19,1.27-.37,1.9-.54,2.5-.69,5-1.3,7.55-1.8l.78-.16c1.69-.32,3.39-.61,5.09-.86l.34,0c.88-.13,1.77-.24,2.66-.34l.75-.08c1.65-.18,3.3-.32,5-.42l.56,0c.89-.05,1.78-.09,2.67-.11l.68,0c.83,0,1.65-.05,2.47-.05v-99H368.49L349.13,376" transform="translate(-193.17 -116.46)"/><path class="cls-3" d="M420.77,453.68l.78-.16-.78.16m0,0,.78-.16-.78.16m5.87-1,.34,0-.34,0m0,0,.34,0-.34,0m3-.38.75-.08-.75.08m0,0,.75-.08-.75.08m5.71-.5.56,0-.56,0m0,0,.56,0-.56,0m3.23-.14.68,0-.68,0m0,0,.68,0-.68,0m3.15-99.1H368.49L349.13,376l.66,1.12L256.84,490V488l-26.52,32.19,109.2-38.84a19.48,19.48,0,0,1-1.27-7c-.06-10.94,9-21,19.91-21h.09a18.3,18.3,0,0,1,4.63.61l.26.07,29.46,8.47,13.45-4.79h0c1.22-.44,2.44-.83,3.67-1.22h0l1.58-.48h0c.63-.19,1.27-.37,1.9-.54h0l1.84-.49h0l0,0c1-.26,2-.51,3-.74h0c.87-.19,1.75-.38,2.64-.55l.78-.16c1.69-.32,3.39-.61,5.09-.86l.34,0c.88-.13,1.77-.24,2.66-.34l.75-.08c1.65-.18,3.3-.32,5-.42l.56,0c.89-.05,1.78-.09,2.67-.11l.68,0h0c.83,0,1.65-.05,2.47-.05v-99" transform="translate(-193.17 -116.46)"/><polyline class="cls-4" points="63.67 101.51 155.97 259.57 175.32 236.08 37.15 0 37.15 403.75 63.67 371.57 63.67 101.51"/><polyline class="cls-5" points="37.15 0 37.15 403.75 63.67 371.57 63.67 296.74 37.15 328.93 63.67 296.74 37.15 328.93 63.67 296.74 63.67 101.51 155.97 259.57 175.32 236.08 37.15 0"/><polyline class="cls-4" points="63.67 296.74 37.15 328.93 63.67 296.74"/><polyline class="cls-6" points="63.67 296.74 37.15 328.93 63.67 296.74"/><polyline class="cls-4" points="155.97 259.57 175.32 236.08 155.97 259.57"/><polyline class="cls-6" points="175.32 236.08 155.97 259.57 175.32 236.08"/><path class="cls-7" d="M441.73,581.46l-89.35-58.27,14.05-5,75.3,49.12V464.62a30.12,30.12,0,0,1-21.37-8.85l-2.23-1.54q-2.46.57-4.91,1.25c-.63.18-1.27.35-1.9.54l-1.58.48c-1.23.39-2.45.78-3.67,1.22h0l-175.73,62.5L441.73,658.11V581.46" transform="translate(-193.17 -116.46)"/><path class="cls-8" d="M418.13,454.23c-1,.24-2.05.49-3.06.76h0l-1.84.49h0c-.63.18-1.27.35-1.9.54h0l-1.58.48h0c-1.23.39-2.45.78-3.67,1.22h0l-13.45,4.79h0l-.34.12.34-.12-.34.12.34-.12-.34.12.34.09-7.67,2.72-30.1,10.71-2.64.94-12.61,4.48c0-.06,0-.12-.07-.19l-109.2,38.84L441.73,658.11V581.46l-89.35-58.27,14.05-5,75.3,49.12V464.62a30.12,30.12,0,0,1-21.37-8.85l-2.23-1.54" transform="translate(-193.17 -116.46)"/><path class="cls-7" d="M406.07,457.72c1.22-.44,2.44-.83,3.67-1.22-1.23.39-2.45.78-3.67,1.22" transform="translate(-193.17 -116.46)"/><path class="cls-8" d="M409.74,456.5c-1.23.39-2.45.78-3.67,1.22,1.22-.44,2.44-.83,3.67-1.22" transform="translate(-193.17 -116.46)"/><path class="cls-7" d="M411.32,456c.63-.19,1.27-.36,1.9-.54-.63.17-1.27.35-1.9.54" transform="translate(-193.17 -116.46)"/><path class="cls-8" d="M413.22,455.48c-.63.17-1.27.35-1.9.54.63-.19,1.27-.36,1.9-.54" transform="translate(-193.17 -116.46)"/><polyline class="cls-9" points="173.26 401.73 159.22 406.73 248.56 465 248.56 450.84 173.26 401.73"/><polyline class="cls-10" points="173.26 401.73 159.22 406.73 248.56 465 248.56 450.84 173.26 401.73"/><polyline class="cls-9" points="146.42 364.89 159.03 360.41 146.42 364.89"/><polyline class="cls-9" points="199.44 346.04 191.78 348.77 199.44 346.04"/><polyline class="cls-11" points="199.44 346.04 199.1 346.16 199.44 346.04"/><path class="cls-9" d="M339.59,481.36l12.61-4.49,2.64-.94,30.1-10.7,7.67-2.72L363.14,454c-15.37-4.27-29.34,12.46-23.55,27.32" transform="translate(-193.17 -116.46)"/><path class="cls-9" d="M420.36,455.77a30.12,30.12,0,0,0,21.37,8.85v-13l-2.47,0-.68,0c-.89,0-1.78.06-2.67.11l-.56,0c-1.66.1-3.31.24-5,.42l-.75.08c-.89.1-1.78.21-2.66.34l-.34,0c-1.7.25-3.4.54-5.09.86l-.78.16c-.89.17-1.77.36-2.64.55l2.23,1.54" transform="translate(-193.17 -116.46)"/><path class="cls-10" d="M441.73,451.59h0l-2.47,0h0l-.68,0c-.89,0-1.78.06-2.67.11l-.56,0c-1.66.1-3.31.24-5,.42l-.75.08c-.89.1-1.78.21-2.66.34l-.34,0c-1.7.25-3.4.54-5.09.86l-.78.16c-.89.17-1.77.36-2.64.55l2.23,1.54a30.12,30.12,0,0,0,21.37,8.85v-13" transform="translate(-193.17 -116.46)"/><polyline class="cls-9" points="233.47 336.2 233.81 336.15 233.47 336.2"/><polyline class="cls-12" points="233.81 336.15 233.47 336.2 233.81 336.15"/><polyline class="cls-9" points="242.18 335.32 242.74 335.28 242.18 335.32"/><polyline class="cls-12" points="242.74 335.28 242.18 335.32 242.74 335.28"/><polyline class="cls-9" points="227.6 337.21 228.38 337.06 227.6 337.21"/><polyline class="cls-12" points="228.38 337.06 227.6 337.21 228.38 337.06"/><polyline class="cls-9" points="245.41 335.17 246.09 335.16 245.41 335.17"/><polyline class="cls-12" points="246.09 335.16 245.41 335.17 246.09 335.16"/><polyline class="cls-9" points="236.47 335.82 237.22 335.74 236.47 335.82"/><polyline class="cls-12" points="237.22 335.74 236.47 335.82 237.22 335.74"/><polyline class="cls-13" points="63.67 373.48 156.62 260.69 155.97 259.57 63.67 371.57 63.67 373.48"/><line class="cls-5" x1="155.97" y1="259.57" x2="155.97" y2="259.57"/><line class="cls-14" x1="155.97" y1="259.57" x2="155.97" y2="259.57"/><polyline class="cls-15" points="155.97 259.57 63.67 371.57 63.67 373.48 156.62 260.69 155.97 259.57"/><polyline class="cls-13" points="63.67 101.51 63.67 371.57 155.97 259.57 63.67 101.51"/><polyline class="cls-15" points="63.67 101.51 63.67 371.57 155.97 259.57 63.67 371.57 155.97 259.57 63.67 371.57 155.97 259.57 63.67 101.51"/><polyline class="cls-13" points="63.67 371.57 155.97 259.57 63.67 371.57"/><polyline class="cls-16" points="155.97 259.57 63.67 371.57 155.97 259.57"/><path class="cls-17" d="M468.26,455l2,.53-2-.53" transform="translate(-193.17 -116.46)"/><path class="cls-17" d="M441.73,451.57v0h0l2.45,0c-.82,0-1.64-.05-2.45-.05" transform="translate(-193.17 -116.46)"/><path class="cls-2" d="M444.18,451.62l.69,0c.89,0,1.78.06,2.66.11l.57,0c1.66.1,3.31.24,5,.42l.75.08c.89.1,1.78.21,2.66.34l.34,0c1.7.25,3.4.54,5.09.86l.78.16c2.53.5,5.05,1.11,7.54,1.8.64.17,1.28.35,1.91.54l1.58.48c1.23.39,2.45.79,3.68,1.22h0L492,462.93,519.55,454c15.37-4.27,31.28,12.87,25.48,27.74l-5.68-2,113.78,40.46L626.61,488V490l-93-112.79.66-1.13L515,352.54H441.73v99c.81,0,1.63,0,2.45.05" transform="translate(-193.17 -116.46)"/><path class="cls-2" d="M462.68,453.68l-.78-.16.78.16m0,0-.78-.16.78.16m-5.87-1-.34,0,.34,0m0,0-.34,0,.34,0m-3-.38-.75-.08.75.08m0,0-.75-.08.75.08m-5.71-.5-.57,0,.57,0m0,0-.57,0,.57,0m-3.23-.14-.69,0,.69,0m0,0-.69,0,.69,0M515,352.54H441.73v99c.81,0,1.63,0,2.45.05h0l.69,0c.89,0,1.78.06,2.66.11l.57,0c1.66.1,3.31.24,5,.42l.75.08c.89.1,1.78.21,2.66.34l.34,0c1.7.25,3.4.54,5.09.86l.78.16c.89.17,1.76.36,2.64.55h0q1.47.34,2.94.72l2,.53h0c.64.17,1.28.35,1.91.54h0l1.58.48h0c1.23.39,2.45.79,3.68,1.22h0L492,462.93,519.55,454a18.19,18.19,0,0,1,4.87-.66c11.44,0,21.86,10.65,21.83,21.94a17.73,17.73,0,0,1-1.22,6.46l108.1,38.44L626.61,488V490l-93-112.79.66-1.13L515,352.54" transform="translate(-193.17 -116.46)"/><polyline class="cls-4" points="433.44 101.51 433.44 371.57 459.96 403.75 459.96 0 321.79 236.08 341.15 259.57 433.44 101.51"/><path class="cls-18" d="M653.13,520.22h0m0-403.76L515,352.54,534.32,376,626.61,218V488l26.52,32.19V116.46" transform="translate(-193.17 -116.46)"/><path class="cls-7" d="M653.13,520.22,477.4,457.72h0c-1.23-.43-2.46-.83-3.68-1.22l-1.58-.48c-.63-.19-1.27-.36-1.91-.54q-2.45-.68-4.9-1.25l-2.23,1.54a30.11,30.11,0,0,1-21.36,8.85V567.31L517,518.19l14,5-89.33,58.27v76.65l211.4-137.89" transform="translate(-193.17 -116.46)"/><polyline class="cls-2" points="351.86 365.31 351.86 365.31 459.96 403.75 351.86 365.31"/><path class="cls-19" d="M465.32,454.23l-2.23,1.54a30.11,30.11,0,0,1-21.36,8.85V567.31L517,518.19l14,5-89.33,58.27v76.65l211.4-137.89L545,481.78l-12.82-4.56,7.14,2.54L492,462.93l33.07,11.76L492,462.93l-14.63-5.21h0c-1.23-.43-2.46-.83-3.68-1.22h0l-1.58-.48h0c-.63-.19-1.27-.36-1.91-.54h0q-2.45-.68-4.9-1.25" transform="translate(-193.17 -116.46)"/><path class="cls-7" d="M473.71,456.5c1.22.39,2.45.79,3.68,1.22-1.23-.43-2.45-.83-3.68-1.22" transform="translate(-193.17 -116.46)"/><path class="cls-19" d="M473.71,456.5c1.22.39,2.45.79,3.68,1.22-1.23-.43-2.45-.83-3.68-1.22" transform="translate(-193.17 -116.46)"/><path class="cls-7" d="M470.22,455.48c.64.18,1.28.35,1.91.54-.63-.19-1.27-.37-1.91-.54" transform="translate(-193.17 -116.46)"/><path class="cls-19" d="M470.22,455.48c.64.18,1.28.35,1.91.54-.63-.19-1.27-.37-1.91-.54" transform="translate(-193.17 -116.46)"/><polygon class="cls-9" points="337.89 406.73 323.85 401.73 248.56 450.84 248.56 465 337.89 406.73"/><polygon class="cls-9" points="337.89 406.73 323.85 401.73 248.56 450.84 248.56 465 337.89 406.73"/><polyline class="cls-9" points="336.85 359.97 346.18 363.29 298.86 346.46 336.85 359.97"/><polyline class="cls-20" points="298.86 346.46 346.18 363.29 336.85 359.97 298.86 346.46"/><path class="cls-9" d="M545,481.78c5.8-14.87-10.11-32-25.48-27.74L492,462.93l47.32,16.83Z" transform="translate(-193.17 -116.46)"/><path class="cls-9" d="M545,481.78c5.8-14.87-10.11-32-25.48-27.74L492,462.93l47.32,16.83Z" transform="translate(-193.17 -116.46)"/><path class="cls-9" d="M441.73,464.62a30.11,30.11,0,0,0,21.36-8.85l2.23-1.54c-.88-.19-1.75-.38-2.64-.55l-.78-.16c-1.69-.32-3.39-.61-5.09-.86l-.34,0c-.88-.13-1.77-.24-2.66-.34l-.75-.08c-1.65-.18-3.3-.32-5-.42l-.57,0c-.88-.05-1.77-.09-2.66-.11l-.69,0-2.45,0v13" transform="translate(-193.17 -116.46)"/><path class="cls-9" d="M441.73,464.62a30.11,30.11,0,0,0,21.36-8.85l2.23-1.54c-.88-.19-1.75-.38-2.64-.55l-.78-.16c-1.69-.32-3.39-.61-5.09-.86l-.34,0c-.88-.13-1.77-.24-2.66-.34l-.75-.08c-1.65-.18-3.3-.32-5-.42l-.57,0c-.88-.05-1.77-.09-2.66-.11l-.69,0-2.45,0v13" transform="translate(-193.17 -116.46)"/><polyline class="cls-9" points="263.3 336.15 263.64 336.2 263.3 336.15"/><polyline class="cls-2" points="263.3 336.15 263.64 336.2 263.3 336.15"/><polyline class="cls-9" points="254.37 335.28 254.93 335.32 254.37 335.28"/><polyline class="cls-2" points="254.37 335.28 254.93 335.32 254.37 335.28"/><polyline class="cls-9" points="259.89 335.74 260.64 335.82 259.89 335.74"/><polyline class="cls-2" points="259.89 335.74 260.64 335.82 259.89 335.74"/><polyline class="cls-9" points="251.01 335.16 251.7 335.17 251.01 335.16"/><polyline class="cls-2" points="251.01 335.16 251.7 335.17 251.01 335.16"/><polyline class="cls-9" points="268.73 337.06 269.51 337.21 268.73 337.06"/><polyline class="cls-2" points="268.73 337.06 269.51 337.21 268.73 337.06"/><polyline class="cls-13" points="341.15 259.57 433.44 371.57 341.15 259.57"/><polyline class="cls-13" points="340.49 260.69 433.44 373.48 433.44 371.57 341.15 259.57 340.49 260.69"/><polyline class="cls-21" points="341.15 259.57 341.15 259.57 340.49 260.69 433.44 373.48 433.44 371.57 341.15 259.57"/><polyline class="cls-13" points="433.44 101.51 341.15 259.57 433.44 371.57 433.44 101.51"/><polyline class="cls-21" points="433.44 101.51 341.15 259.57 433.44 371.57 433.44 101.51"/><path class="cls-1" d="M339.47,481l.12.33h0l-.12-.33m-.26-.74c0,.08.05.15.07.22s0-.14-.07-.22m21.84-6.56-6.21,2.2-2.64.94-3.77,1.35,3.77-1.35-3.77,1.35,3.77-1.35-3.77,1.35,12.62-4.49" transform="translate(-193.17 -116.46)"/><path class="cls-12" d="M338.25,474.37a19.48,19.48,0,0,0,1.27,7l.07,0-.12-.33c-.07-.17-.13-.34-.19-.52s0-.14-.07-.22a19.44,19.44,0,0,1-1-5.92" transform="translate(-193.17 -116.46)"/><path class="cls-11" d="M392.27,462.63l-7.33,2.6-23.89,8.5-12.62,4.49-8.84,3.14,8.84-3.14-8.84,3.14,8.84-3.14-8.84,3.14h0l-.07,0c0,.07.05.13.07.19l12.61-4.48,2.64-.94,30.1-10.71,7.67-2.72-.34-.09-7.33,2.6,7.33-2.6-7.33,2.6,7.33-2.6" transform="translate(-193.17 -116.46)"/><polyline class="cls-10" points="159.03 360.41 155.26 361.75 146.42 364.89 155.26 361.75 159.03 360.41"/><polyline class="cls-1" points="159.03 360.41 155.26 361.75 159.03 360.41"/><polyline class="cls-22" points="155.26 361.75 155.26 361.75 146.42 364.89 155.26 361.75"/><polyline class="cls-10" points="199.1 346.16 191.78 348.77 199.1 346.16"/><polyline class="cls-22" points="199.1 346.16 191.78 348.77 199.1 346.16"/><path class="cls-10" d="M358.23,453.58c-10.86,0-19.92,9.91-20,20.79a19.44,19.44,0,0,0,1,5.92h0c0,.08.05.15.07.22h0c.06.18.12.35.19.52h0l.12.33h0l8.84-3.14,3.77-1.35,2.64-.94,6.21-2.2,23.89-8.5,7.33-2.6-29.13-8.37a17.94,17.94,0,0,0-4.91-.68" transform="translate(-193.17 -116.46)"/><path class="cls-23" d="M204.21,756.62A20.37,20.37,0,0,0,206.86,767a20.12,20.12,0,0,0,7,7.21,17.58,17.58,0,0,0,9.3,2.65,16.64,16.64,0,0,0,9.8-2.93,33.94,33.94,0,0,0,6.76-6.09l6.42,7.89a24.28,24.28,0,0,1-5.85,5.69,33.36,33.36,0,0,1-8.45,4.28,30.22,30.22,0,0,1-9.92,1.63,27.25,27.25,0,0,1-14.65-4,29.07,29.07,0,0,1-10.31-11,34.53,34.53,0,0,1,0-31.38,29.15,29.15,0,0,1,10.31-11,27.25,27.25,0,0,1,14.65-4,31.49,31.49,0,0,1,14.65,3.32,23.15,23.15,0,0,1,9.57,8.62l-6.42,7.89a21.86,21.86,0,0,0-7.38-6.59,18.6,18.6,0,0,0-9.29-2.77,17.89,17.89,0,0,0-9.58,2.65,18.92,18.92,0,0,0-6.76,7.21A21.55,21.55,0,0,0,204.21,756.62Z" transform="translate(-193.17 -116.46)"/><path class="cls-23" d="M257.05,786.25V702.87h11.61v83.38Z" transform="translate(-193.17 -116.46)"/><path class="cls-23" d="M334.91,778.47h-.12a32.38,32.38,0,0,1-9.91,6.2,34.91,34.91,0,0,1-29.46-1.18,28.09,28.09,0,0,1-11-10.71,30.32,30.32,0,0,1-3.94-15.49q0-9.91,4.17-17a28.78,28.78,0,0,1,11-10.81,30.56,30.56,0,0,1,15-3.78,25.71,25.71,0,0,1,13.52,3.67,26.82,26.82,0,0,1,9.69,10.08,30,30,0,0,1,3.61,15l-.11,5h-45.3a19,19,0,0,0,6.59,12.68q5.58,4.67,14.14,4.67,6.19,0,10-2.31a46.15,46.15,0,0,0,6.31-4.45Zm-24.23-42a21.38,21.38,0,0,0-11.6,3.1q-5,3.09-6.54,10.64h33.13v-.79a13,13,0,0,0-2.54-6.76,15.25,15.25,0,0,0-5.46-4.56A15.41,15.41,0,0,0,310.68,736.45Z" transform="translate(-193.17 -116.46)"/><path class="cls-23" d="M355.86,727.1l17.24,42.25L391,727.1H403l-26.25,59.15h-8.34l-25-59.15Z" transform="translate(-193.17 -116.46)"/><path class="cls-23" d="M462.68,778.47h-.12a32.5,32.5,0,0,1-9.91,6.2,34.93,34.93,0,0,1-29.47-1.18,28.13,28.13,0,0,1-11-10.71,30.32,30.32,0,0,1-3.94-15.49q0-9.91,4.16-17a28.8,28.8,0,0,1,11.05-10.81,30.56,30.56,0,0,1,15-3.78A25.71,25.71,0,0,1,452,729.41a26.82,26.82,0,0,1,9.69,10.08,30.14,30.14,0,0,1,3.61,15l-.12,5H419.86a19,19,0,0,0,6.59,12.68q5.58,4.67,14.14,4.67a19.27,19.27,0,0,0,10-2.31,46.15,46.15,0,0,0,6.31-4.45Zm-24.23-42a21.38,21.38,0,0,0-11.6,3.1q-5,3.09-6.54,10.64h33.13v-.79a13,13,0,0,0-2.54-6.76,15.45,15.45,0,0,0-12.45-6.19Z" transform="translate(-193.17 -116.46)"/><path class="cls-23" d="M511,739.6a13.77,13.77,0,0,0-2.76-1,14.8,14.8,0,0,0-3.44-.39,15,15,0,0,0-7.1,1.86,16,16,0,0,0-5.8,5.29,14.33,14.33,0,0,0-2.31,8.17v32.68H477.89V727.1H489.6v11.15a21.65,21.65,0,0,1,7.5-8.9,18.11,18.11,0,0,1,10.53-3.49,14.7,14.7,0,0,1,6.42,1.12Z" transform="translate(-193.17 -116.46)"/><path class="cls-24" d="M561.05,738.81h-14v47.44H535.36V738.81H525.9v-10.7h9.46v-7.66A16.79,16.79,0,0,1,552.94,703a15.12,15.12,0,0,1,7.49,1.69,16.47,16.47,0,0,1,4.34,3.27l-3.95,8.9a12.11,12.11,0,0,0-2.93-2.08,7.59,7.59,0,0,0-3.6-1q-4,0-5.63,1.91a7.18,7.18,0,0,0-1.58,4.74v7.66h14Z" transform="translate(-193.17 -116.46)"/><path class="cls-25" d="M627.64,756.61a31.4,31.4,0,0,1-4,15.95,29.24,29.24,0,0,1-10.82,10.87,29.9,29.9,0,0,1-15.27,3.94,30.22,30.22,0,0,1-15.32-3.94,29.08,29.08,0,0,1-10.87-10.87,33.78,33.78,0,0,1,0-31.89,29,29,0,0,1,10.87-10.87,30.22,30.22,0,0,1,15.32-3.95,29.91,29.91,0,0,1,15.27,3.95,29.17,29.17,0,0,1,10.82,10.87A31.37,31.37,0,0,1,627.64,756.61Zm-11.83,0a21.34,21.34,0,0,0-2.31-10.53,18.09,18.09,0,0,0-6.59-7.1,17.66,17.66,0,0,0-9.36-2.53,17.75,17.75,0,0,0-16,9.63,24.93,24.93,0,0,0,0,21,18.2,18.2,0,0,0,6.65,7.15,17.58,17.58,0,0,0,9.4,2.59,17.35,17.35,0,0,0,9.36-2.59A18.5,18.5,0,0,0,613.5,767,21.15,21.15,0,0,0,615.81,756.61Z" transform="translate(-193.17 -116.46)"/><path class="cls-26" d="M631.69,786.25l22.76-29.64-22.87-29.52h14.65l16,20.85,13.52-20.85h13.74l-21,29.19,23,30h-14.2L661.1,765.18l-15.77,21.18Z" transform="translate(-193.17 -116.46)"/></svg>