<svg id="Layer_1" data-name="Layer 1" xmlns="http://www.w3.org/2000/svg" xmlns:xlink="http://www.w3.org/1999/xlink" viewBox="0 0 1162.2 664.11"><defs><style>.cls-1{fill:#0f0f0f;}.cls-2{fill:url(#linear-gradient);}.cls-3{fill:#fff;}.cls-4{fill:url(#linear-gradient-2);}.cls-5{fill:url(#linear-gradient-3);}.cls-6{fill:url(#linear-gradient-4);}</style><linearGradient id="linear-gradient" x1="468.63" y1="268.6" x2="769.49" y2="332.81" gradientUnits="userSpaceOnUse"><stop offset="0" stop-color="#ff94ff"/><stop offset="0.51" stop-color="#9aceff"/><stop offset="1" stop-color="#1f4dcc"/></linearGradient><linearGradient id="linear-gradient-2" x1="827" y1="649.51" x2="665" y2="579.83" gradientUnits="userSpaceOnUse"><stop offset="0" stop-color="#1f4dcc"/><stop offset="0.5" stop-color="#9aceff"/><stop offset="1" stop-color="#ff94ff"/></linearGradient><linearGradient id="linear-gradient-3" x1="829.77" y1="643.07" x2="667.77" y2="573.39" xlink:href="#linear-gradient-2"/><linearGradient id="linear-gradient-4" x1="837.16" y1="625.9" x2="675.15" y2="556.22" xlink:href="#linear-gradient-2"/></defs><title>cfox-business-front</title><rect class="cls-1" width="1162.2" height="664.11"/><path class="cls-2" d="M725.1,449.23,762.24,425l6.65-4.39,0,0,4.51-2.95V248.11h.15V104.5L657.38,284.43H556.69L440.48,104.5l0,187.79h0V417.94l4.42,2.89.25-.28L607.07,527.33l118.14-77.94Zm39.56-314.48,0,267.38L665.45,288.36ZM660.89,296.83,754,403.55,624.87,353.93a49.92,49.92,0,0,0-9-2.52Zm-62.67,54.58a49.81,49.81,0,0,0-9,2.52l-21,8.07-20.84,7.66L531.88,376l-71.77,27.59,93.06-106.72ZM449.4,134.75l99.21,153.61L449.43,402.13Zm5.24,281.34L592.72,363a40,40,0,0,1,9.86-2.4l0,153.08Zm152.39-68-45.17-54.73H652.2Zm4.46,12.54a40,40,0,0,1,9.86,2.4l138.12,53.09-148,97.59Z" transform="translate(-32.9 -30.48)"/><path class="cls-3" d="M428.14,597.47a15.18,15.18,0,0,0,7.24,13.25,13.14,13.14,0,0,0,7,2,12.46,12.46,0,0,0,7.36-2.2,25.27,25.27,0,0,0,5.08-4.58l4.83,5.93a18.17,18.17,0,0,1-4.4,4.28,25.25,25.25,0,0,1-6.35,3.22,22.92,22.92,0,0,1-7.46,1.22,20.36,20.36,0,0,1-11-3.05,21.64,21.64,0,0,1-7.75-8.29,25.91,25.91,0,0,1,0-23.59,21.74,21.74,0,0,1,7.75-8.25,20.36,20.36,0,0,1,11-3,23.51,23.51,0,0,1,11,2.5,17.31,17.31,0,0,1,7.2,6.48l-4.83,5.92a16.38,16.38,0,0,0-5.54-5,14,14,0,0,0-7-2.08,13.5,13.5,0,0,0-7.2,2,14.33,14.33,0,0,0-5.08,5.42A16.19,16.19,0,0,0,428.14,597.47Z" transform="translate(-32.9 -30.48)"/><path class="cls-3" d="M467.85,619.74V557.07h8.73v62.67Z" transform="translate(-32.9 -30.48)"/><path class="cls-3" d="M526.37,613.89h-.09a24.32,24.32,0,0,1-7.45,4.66,26.21,26.21,0,0,1-22.14-.89,21.22,21.22,0,0,1-8.26-8,22.81,22.81,0,0,1-3-11.65,24.58,24.58,0,0,1,3.13-12.74,21.59,21.59,0,0,1,8.3-8.13,23,23,0,0,1,11.26-2.84A19.27,19.27,0,0,1,518.32,577a20.2,20.2,0,0,1,7.29,7.58,22.66,22.66,0,0,1,2.7,11.26l-.08,3.72h-34a14.27,14.27,0,0,0,4.95,9.53,16,16,0,0,0,10.63,3.51,14.46,14.46,0,0,0,7.54-1.73,34.18,34.18,0,0,0,4.74-3.35Zm-18.21-31.58a16.12,16.12,0,0,0-8.72,2.33q-3.74,2.33-4.91,8h24.89v-.59a9.69,9.69,0,0,0-1.9-5.08,11.46,11.46,0,0,0-4.11-3.43A11.58,11.58,0,0,0,508.16,582.31Z" transform="translate(-32.9 -30.48)"/><path class="cls-3" d="M542.12,575.28l13,31.75,13.47-31.75h9l-19.73,44.46h-6.26l-18.8-44.46Z" transform="translate(-32.9 -30.48)"/><path class="cls-3" d="M622.39,613.89h-.08a24.44,24.44,0,0,1-7.45,4.66,26.23,26.23,0,0,1-22.15-.89,21.12,21.12,0,0,1-8.25-8,22.82,22.82,0,0,1-3-11.65,24.58,24.58,0,0,1,3.14-12.74,21.52,21.52,0,0,1,8.3-8.13,23,23,0,0,1,11.26-2.84A19.3,19.3,0,0,1,614.35,577a20.17,20.17,0,0,1,7.28,7.58,22.56,22.56,0,0,1,2.71,11.26l-.08,3.72h-34a14.19,14.19,0,0,0,4.95,9.53,16,16,0,0,0,10.63,3.51,14.42,14.42,0,0,0,7.53-1.73,34.18,34.18,0,0,0,4.74-3.35Zm-18.2-31.58a16.12,16.12,0,0,0-8.72,2.33q-3.74,2.33-4.92,8h24.9v-.59a9.62,9.62,0,0,0-1.91-5.08,11.61,11.61,0,0,0-9.35-4.66Z" transform="translate(-32.9 -30.48)"/><path class="cls-3" d="M658.72,584.68a10.13,10.13,0,0,0-2.07-.72,10.88,10.88,0,0,0-2.59-.3,11.26,11.26,0,0,0-5.33,1.4,11.94,11.94,0,0,0-4.36,4,10.73,10.73,0,0,0-1.74,6.14v24.56h-8.8V575.28h8.8v8.38a16.33,16.33,0,0,1,5.63-6.69,13.63,13.63,0,0,1,7.92-2.62,11,11,0,0,1,4.83.85Z" transform="translate(-32.9 -30.48)"/><path class="cls-4" d="M696.33,584.09h-10.5v35.65H677V584.09h-7.11V576H677v-5.76a12.62,12.62,0,0,1,13.21-13.12,11.25,11.25,0,0,1,5.63,1.27,12,12,0,0,1,3.26,2.45l-3,6.69A9.48,9.48,0,0,0,694,566a5.76,5.76,0,0,0-2.71-.72c-2,0-3.45.48-4.24,1.44a5.39,5.39,0,0,0-1.18,3.55V576h10.5Z" transform="translate(-32.9 -30.48)"/><path class="cls-5" d="M746.37,597.46a23.59,23.59,0,0,1-3,12,22.05,22.05,0,0,1-8.13,8.17,23.8,23.8,0,0,1-23,0,21.79,21.79,0,0,1-8.17-8.17,25.37,25.37,0,0,1,0-24,21.79,21.79,0,0,1,8.17-8.17,23.8,23.8,0,0,1,23,0,22.05,22.05,0,0,1,8.13,8.17A23.57,23.57,0,0,1,746.37,597.46Zm-8.89,0a15.93,15.93,0,0,0-1.73-7.91,13.54,13.54,0,0,0-5-5.34,13.26,13.26,0,0,0-7-1.9,13.31,13.31,0,0,0-12.06,7.24,18.69,18.69,0,0,0,0,15.75,13.68,13.68,0,0,0,5,5.37,13.27,13.27,0,0,0,7.07,2,13,13,0,0,0,7-2,13.83,13.83,0,0,0,5-5.37A15.81,15.81,0,0,0,737.48,597.46Z" transform="translate(-32.9 -30.48)"/><path class="cls-6" d="M749.42,619.74l17.11-22.28-17.19-22.18h11l12,15.66,10.16-15.66h10.33l-15.75,21.93,17.28,22.53H783.72l-12.2-15.84-11.85,15.92Z" transform="translate(-32.9 -30.48)"/></svg>