<svg id="Layer_1" data-name="Layer 1" xmlns="http://www.w3.org/2000/svg" viewBox="0 0 1106.02 352.29"><defs><style>.cls-1,.cls-7{fill:#f86cff;}.cls-2,.cls-6{fill:#fff;}.cls-2{opacity:0.26;}.cls-3{fill:#4958e2;}.cls-4{fill:#ffd3ff;}.cls-5{fill:#250045;}.cls-7{opacity:0.28;}.cls-8{fill:#f2f2f2;}</style></defs><title>cfox-cartoon-white-web-ff</title><polygon class="cls-1" points="0 220.68 0 220.68 0 220.68 0 220.68"/><polygon class="cls-2" points="0 220.68 0 220.68 0 220.68 0 220.68"/><polygon class="cls-3" points="0 220.68 0 220.68 0 220.68 0 220.68"/><polygon class="cls-2" points="0 220.68 0 220.68 0 220.68 0 220.68"/><path class="cls-2" d="M194,659.65c1.1-.21,2.2-.4,3.31-.56C196.2,659.25,195.1,659.44,194,659.65Z" transform="translate(-57.95 -440.43)"/><path class="cls-2" d="M186.32,661.59l1-.32Z" transform="translate(-57.95 -440.43)"/><path class="cls-2" d="M203.34,658.49l1.73-.07Z" transform="translate(-57.95 -440.43)"/><path class="cls-2" d="M193.49,659.75c-1.64.33-3.28.72-4.9,1.17,1-.29,2.12-.56,3.18-.81Z" transform="translate(-57.95 -440.43)"/><path class="cls-2" d="M207.12,658.39h0l-1.6,0Z" transform="translate(-57.95 -440.43)"/><path class="cls-2" d="M197.53,659.06l1.73-.22Z" transform="translate(-57.95 -440.43)"/><path class="cls-2" d="M199.75,658.79c1.07-.12,2.15-.21,3.22-.27C201.9,658.58,200.82,658.67,199.75,658.79Z" transform="translate(-57.95 -440.43)"/><polygon class="cls-1" points="90.95 234.41 112.25 226.84 92.67 233.8 90.95 234.41"/><polygon class="cls-2" points="90.95 234.41 112.25 226.84 92.67 233.8 90.95 234.41"/><polygon class="cls-3" points="28.93 241.67 11.68 262.6 11.68 262.6 11.68 262.6 28.93 241.67 28.93 241.67"/><polygon class="cls-2" points="28.93 241.67 11.68 262.6 11.68 262.6 11.68 262.6 28.93 241.67 28.93 241.67"/><polygon class="cls-3" points="88.96 168.82 101.55 153.54 88.96 168.82 88.96 168.82"/><polygon class="cls-2" points="88.96 168.82 101.55 153.54 88.96 168.82 88.96 168.82"/><path class="cls-4" d="M183.93,662.38c.8-.28,1.59-.54,2.39-.79C185.52,661.84,184.73,662.1,183.93,662.38Z" transform="translate(-57.95 -440.43)"/><path class="cls-2" d="M183.93,662.38c.8-.28,1.59-.54,2.39-.79C185.52,661.84,184.73,662.1,183.93,662.38Z" transform="translate(-57.95 -440.43)"/><path class="cls-4" d="M187.35,661.27l1.24-.35Z" transform="translate(-57.95 -440.43)"/><path class="cls-2" d="M187.35,661.27l1.24-.35Z" transform="translate(-57.95 -440.43)"/><polygon class="cls-5" points="82.75 237.33 90.95 234.41 82.75 237.33 82.75 237.33"/><polygon class="cls-2" points="82.75 237.33 90.95 234.41 82.75 237.33 82.75 237.33"/><polygon class="cls-5" points="117.23 225.06 117.23 225.06 112.25 226.84 117.23 225.06"/><polygon class="cls-2" points="117.23 225.06 117.23 225.06 112.25 226.84 117.23 225.06"/><path d="M140.7,677.75l8.2-2.91,1.72-.61,19.57-7,5-1.77L156,660C146,657.21,136.92,668.09,140.7,677.75Z" transform="translate(-57.95 -440.43)"/><path class="cls-5" d="M197.31,659.09l.22,0Z" transform="translate(-57.95 -440.43)"/><path class="cls-2" d="M197.31,659.09l.22,0Z" transform="translate(-57.95 -440.43)"/><path class="cls-5" d="M203,658.52l.37,0Z" transform="translate(-57.95 -440.43)"/><path class="cls-2" d="M203,658.52l.37,0Z" transform="translate(-57.95 -440.43)"/><path class="cls-5" d="M193.49,659.75l.51-.1Z" transform="translate(-57.95 -440.43)"/><path class="cls-2" d="M193.49,659.75l.51-.1Z" transform="translate(-57.95 -440.43)"/><path class="cls-5" d="M205.07,658.42h0Z" transform="translate(-57.95 -440.43)"/><path class="cls-2" d="M205.07,658.42h0Z" transform="translate(-57.95 -440.43)"/><polygon class="cls-6" points="28.93 65.72 28.93 242.91 89.38 169.55 28.93 65.72"/><path class="cls-7" d="M225.66,660.92c-1.63-.45-3.26-.84-4.91-1.17.58.11,1.15.23,1.72.36C223.54,660.36,224.6,660.63,225.66,660.92Z" transform="translate(-57.95 -440.43)"/><polygon class="cls-7" points="209.4 168.82 196.81 153.54 209.4 168.82 209.4 168.82"/><polygon class="cls-7" points="286.67 262.6 269.42 241.67 269.42 241.67 286.67 262.6 212.67 236.28 206.6 234.12 181.89 225.34 181.89 225.34 172.38 221.95 172.37 221.95 172.38 221.95 286.67 262.6"/><path class="cls-7" d="M226.9,661.27l1,.32Z" transform="translate(-57.95 -440.43)"/><path class="cls-7" d="M211.27,658.52c1.08.06,2.15.15,3.23.27C213.42,658.67,212.35,658.58,211.27,658.52Z" transform="translate(-57.95 -440.43)"/><path class="cls-7" d="M215,658.84l1.74.22Z" transform="translate(-57.95 -440.43)"/><path class="cls-7" d="M209.17,658.42l1.73.07Z" transform="translate(-57.95 -440.43)"/><path class="cls-7" d="M216.93,659.09c1.11.16,2.21.35,3.31.56C219.14,659.44,218,659.25,216.93,659.09Z" transform="translate(-57.95 -440.43)"/><path class="cls-7" d="M208.72,658.41c-.53,0-1.06,0-1.6,0h0Z" transform="translate(-57.95 -440.43)"/><path class="cls-8" d="M69.62,703l137.5,89.68h0L344.62,703h0l-17.25-20.94v1.25L266.92,610l.42-.73,60-102.8V682.09L344.62,703V440.43L254.75,594H159.49L69.62,440.43V703l17.26-20.94V506.45l60,102.8.43.73L86.88,683.34v-1.25L69.62,703l71.08-25.28C136.92,668.09,146,657.21,156,660l19.16,5.5m18.32-5.74.51-.1c1.1-.21,2.2-.4,3.31-.56l.22,0,1.73-.22.49-.05c1.07-.12,2.15-.21,3.22-.27l.37,0,1.73-.07h.45l1.6,0c.54,0,1.07,0,1.6,0h.45l1.73.07.37,0c1.08.06,2.15.15,3.23.27l.48.05,1.74.22.21,0c1.11.16,2.21.35,3.31.56l.51.1c.56.11,1.11.27,1.67.4l-1.4,1a19.65,19.65,0,0,1-27.8,0l-1.4-1C192.38,660,192.93,659.86,193.49,659.75Zm13.63,83.11h0L149,705l9.13-3.25,49,31.94h0l49-31.94,9.14,3.25Z" transform="translate(-57.95 -440.43)"/><polygon class="cls-4" points="298.42 250.85 298.42 250.85 298.42 250.85 298.42 250.85"/><polygon class="cls-7" points="298.42 250.85 298.42 250.85 298.42 250.85 298.42 250.85"/><polygon class="cls-5" points="207.28 264.53 198.15 261.28 149.18 293.23 149.18 302.43 207.28 264.53"/><polygon points="198.15 261.28 149.18 293.23 149.18 293.23 100.21 261.28 91.07 264.53 149.18 302.43 149.18 302.43 207.28 264.53 198.15 261.28"/><polygon class="cls-5" points="206.6 234.12 212.67 236.28 181.89 225.34 181.89 225.34 206.6 234.12"/><polygon class="cls-7" points="206.6 234.12 212.67 236.28 181.89 225.34 181.89 225.34 206.6 234.12"/><path d="M274.31,678c3.77-9.66-6.58-20.81-16.57-18l-17.9,5.78,30.78,10.94Z" transform="translate(-57.95 -440.43)"/><path d="M220.75,659.75l-.51-.1c-1.1-.21-2.2-.4-3.31-.56l-.21,0-1.74-.22-.48-.05c-1.08-.12-2.15-.21-3.23-.27l-.37,0-1.73-.07h-.45l-1.6,0-1.6,0h-.45l-1.73.07-.37,0c-1.07.06-2.15.15-3.22.27l-.49.05-1.73.22-.22,0c-1.11.16-2.21.35-3.31.56l-.51.1-1.72.36,1.45,1a19.65,19.65,0,0,0,27.8,0l1.45-1C221.9,660,221.33,659.86,220.75,659.75Z" transform="translate(-57.95 -440.43)"/><path class="cls-5" d="M216.72,659.06l.21,0Z" transform="translate(-57.95 -440.43)"/><path class="cls-7" d="M216.72,659.06l.21,0Z" transform="translate(-57.95 -440.43)"/><path class="cls-5" d="M210.9,658.49l.37,0Z" transform="translate(-57.95 -440.43)"/><path class="cls-7" d="M210.9,658.49l.37,0Z" transform="translate(-57.95 -440.43)"/><path class="cls-5" d="M214.5,658.79l.48.05Z" transform="translate(-57.95 -440.43)"/><path class="cls-7" d="M214.5,658.79l.48.05Z" transform="translate(-57.95 -440.43)"/><path class="cls-5" d="M208.72,658.41h0Z" transform="translate(-57.95 -440.43)"/><path class="cls-7" d="M208.72,658.41h0Z" transform="translate(-57.95 -440.43)"/><path class="cls-5" d="M220.24,659.65l.51.1Z" transform="translate(-57.95 -440.43)"/><path class="cls-7" d="M220.24,659.65l.51.1Z" transform="translate(-57.95 -440.43)"/><polygon class="cls-6" points="269.42 65.72 208.97 169.55 269.42 242.91 269.42 65.72"/><path class="cls-6" d="M423.68,634a31,31,0,0,0,4,15.83,30.57,30.57,0,0,0,10.61,11,26.66,26.66,0,0,0,14.12,4,25.25,25.25,0,0,0,14.9-4.45,51.63,51.63,0,0,0,10.27-9.25l9.75,12a36.76,36.76,0,0,1-8.9,8.64,50,50,0,0,1-12.84,6.5,45.66,45.66,0,0,1-15.06,2.48,41.33,41.33,0,0,1-22.25-6.16,43.77,43.77,0,0,1-15.66-16.77,52.44,52.44,0,0,1,0-47.67,44,44,0,0,1,15.66-16.69,41.42,41.42,0,0,1,22.25-6.16,47.77,47.77,0,0,1,22.25,5.05q9.76,5.05,14.55,13.1l-9.75,12a33.38,33.38,0,0,0-11.22-10,28.27,28.27,0,0,0-14.12-4.19,27.14,27.14,0,0,0-14.55,4,28.72,28.72,0,0,0-10.26,11A32.52,32.52,0,0,0,423.68,634Z" transform="translate(-57.95 -440.43)"/><path class="cls-6" d="M504,679V552.39h17.63V679Z" transform="translate(-57.95 -440.43)"/><path class="cls-6" d="M622.22,667.23h-.17q-5.47,5.31-15.06,9.42a50.3,50.3,0,0,1-20,4.1q-14,0-24.74-5.9a42.85,42.85,0,0,1-16.69-16.26,46.16,46.16,0,0,1-6-23.53q0-15.06,6.34-25.76a43.8,43.8,0,0,1,16.77-16.44,46.54,46.54,0,0,1,22.76-5.73A39.12,39.12,0,0,1,606,592.69,40.82,40.82,0,0,1,620.68,608q5.48,9.76,5.48,22.77l-.17,7.53H557.18q1.55,12.15,10,19.25t21.48,7.11q9.41,0,15.23-3.51a71,71,0,0,0,9.58-6.76Zm-36.8-63.84a32.52,32.52,0,0,0-17.62,4.71q-7.54,4.71-9.93,16.17h50.32v-1.2a19.7,19.7,0,0,0-3.85-10.27,23.5,23.5,0,0,0-18.92-9.41Z" transform="translate(-57.95 -440.43)"/><path class="cls-6" d="M654.06,589.19l26.19,64.18,27.21-64.18h18.15L685.72,679H673.06l-38-89.85Z" transform="translate(-57.95 -440.43)"/><path class="cls-6" d="M816.32,667.23h-.17q-5.48,5.31-15.06,9.42a50.35,50.35,0,0,1-20,4.1q-14,0-24.73-5.9a42.79,42.79,0,0,1-16.69-16.26,46.06,46.06,0,0,1-6-23.53q0-15.06,6.33-25.76a43.76,43.76,0,0,1,16.78-16.44,46.49,46.49,0,0,1,22.76-5.73,39.14,39.14,0,0,1,20.54,5.56A40.9,40.9,0,0,1,814.78,608q5.47,9.76,5.48,22.77l-.18,7.53h-68.8q1.54,12.15,10,19.25t21.48,7.11q9.42,0,15.24-3.51a71.62,71.62,0,0,0,9.58-6.76Zm-36.8-63.84a32.56,32.56,0,0,0-17.63,4.71q-7.53,4.71-9.93,16.17h50.32v-1.2a19.61,19.61,0,0,0-3.85-10.27,23.5,23.5,0,0,0-18.91-9.41Z" transform="translate(-57.95 -440.43)"/><path class="cls-6" d="M889.75,608.18a20.07,20.07,0,0,0-4.2-1.45,22.09,22.09,0,0,0-5.22-.6A22.74,22.74,0,0,0,869.55,609a24.33,24.33,0,0,0-8.82,8,21.71,21.71,0,0,0-3.5,12.41V679h-17.8V589.19h17.8v16.94a32.9,32.9,0,0,1,11.38-13.52,27.53,27.53,0,0,1,16-5.31q6.33,0,9.76,1.71Z" transform="translate(-57.95 -440.43)"/><path class="cls-6" d="M965.76,607H944.54V679h-17.8V607H912.36V590.72h14.38V579.08q0-11.64,7.44-19.08t19.26-7.45a22.87,22.87,0,0,1,11.38,2.57,24.85,24.85,0,0,1,6.59,5l-6,13.52a18.7,18.7,0,0,0-4.45-3.17,11.6,11.6,0,0,0-5.48-1.46c-4.1,0-7,1-8.55,2.91a11,11,0,0,0-2.4,7.19v11.64h21.22Z" transform="translate(-57.95 -440.43)"/><path class="cls-6" d="M1066.92,634a47.58,47.58,0,0,1-6.08,24.22,44.35,44.35,0,0,1-16.43,16.51,45.38,45.38,0,0,1-23.19,6,45.87,45.87,0,0,1-23.28-6,44.15,44.15,0,0,1-16.52-16.51,51.36,51.36,0,0,1,0-48.44,44.18,44.18,0,0,1,16.52-16.52,46,46,0,0,1,23.28-6,45.48,45.48,0,0,1,23.19,6,44.38,44.38,0,0,1,16.43,16.52A47.56,47.56,0,0,1,1066.92,634Zm-18,0a32.38,32.38,0,0,0-3.51-16,27.32,27.32,0,0,0-10-10.78,26.75,26.75,0,0,0-14.2-3.85A27,27,0,0,0,996.83,618a32.17,32.17,0,0,0-3.51,16,31.76,31.76,0,0,0,3.51,15.83,27.73,27.73,0,0,0,10.1,10.87,26.82,26.82,0,0,0,14.29,3.93,26.36,26.36,0,0,0,14.2-3.93,28,28,0,0,0,10-10.87A32,32,0,0,0,1049,634Z" transform="translate(-57.95 -440.43)"/><path class="cls-6" d="M1073.08,679l34.57-45-34.74-44.85h22.25l24.3,31.67L1140,589.18h20.88l-31.83,44.33L1164,679H1142.4l-24.65-32-24,32.18Z" transform="translate(-57.95 -440.43)"/></svg>