<svg id="Layer_1" data-name="Layer 1" xmlns="http://www.w3.org/2000/svg" viewBox="0 0 1096.86 335.28"><title>cfox-outline-black-web-00</title><path d="M422.35,263.72a31.25,31.25,0,0,0,4,16,30.75,30.75,0,0,0,10.7,11.05,26.9,26.9,0,0,0,14.24,4,25.48,25.48,0,0,0,15-4.48A52.15,52.15,0,0,0,476.71,281l9.84,12.08a37.21,37.21,0,0,1-9,8.71,50.11,50.11,0,0,1-12.94,6.56,46.18,46.18,0,0,1-15.19,2.5A41.68,41.68,0,0,1,427,304.62a44.29,44.29,0,0,1-15.8-16.91,52.86,52.86,0,0,1,0-48.07A44.47,44.47,0,0,1,427,222.82a41.6,41.6,0,0,1,22.43-6.22,48.17,48.17,0,0,1,22.44,5.09q9.84,5.1,14.67,13.21L476.71,247a33.57,33.57,0,0,0-11.3-10.1,28.51,28.51,0,0,0-14.24-4.23,27.36,27.36,0,0,0-14.67,4.06,28.9,28.9,0,0,0-10.36,11A33,33,0,0,0,422.35,263.72Z" transform="translate(-71.93 -75.76)"/><path d="M503.29,309.11V181.4h17.77V309.11Z" transform="translate(-71.93 -75.76)"/><path d="M622.54,297.2h-.17q-5.52,5.35-15.19,9.49A50.73,50.73,0,0,1,587,310.83q-14.16,0-24.94-5.95a43.09,43.09,0,0,1-16.83-16.4,46.56,46.56,0,0,1-6-23.73q0-15.18,6.39-26a44.08,44.08,0,0,1,16.91-16.57,47,47,0,0,1,23-5.78A39.41,39.41,0,0,1,606.15,222,41.27,41.27,0,0,1,621,237.49q5.52,9.82,5.52,22.95l-.17,7.59H557q1.56,12.25,10.1,19.42t21.66,7.16q9.48,0,15.36-3.54a70.66,70.66,0,0,0,9.66-6.81Zm-37.1-64.37a32.87,32.87,0,0,0-17.78,4.74q-7.59,4.76-10,16.31h50.74v-1.21a19.85,19.85,0,0,0-3.88-10.35,23.69,23.69,0,0,0-19.07-9.49Z" transform="translate(-71.93 -75.76)"/><path d="M654.64,218.5l26.41,64.72,27.44-64.72h18.29l-40.21,90.61H673.8L635.49,218.5Z" transform="translate(-71.93 -75.76)"/><path d="M818.25,297.2h-.17q-5.52,5.35-15.19,9.49a50.73,50.73,0,0,1-20.19,4.14q-14.16,0-24.94-5.95a43.09,43.09,0,0,1-16.83-16.4,46.56,46.56,0,0,1-6-23.73q0-15.18,6.39-26a44.15,44.15,0,0,1,16.91-16.57,47,47,0,0,1,23-5.78A39.41,39.41,0,0,1,801.86,222a41.19,41.19,0,0,1,14.84,15.45q5.52,9.82,5.52,22.95l-.17,7.59H752.67q1.56,12.25,10.1,19.42t21.66,7.16q9.48,0,15.36-3.54a70.66,70.66,0,0,0,9.66-6.81Zm-37.1-64.37a32.87,32.87,0,0,0-17.78,4.74q-7.59,4.76-10,16.31H804.1v-1.21a19.77,19.77,0,0,0-3.88-10.35,23.69,23.69,0,0,0-19.07-9.49Z" transform="translate(-71.93 -75.76)"/><path d="M892.29,237.66a20.13,20.13,0,0,0-4.23-1.47,22.49,22.49,0,0,0-5.26-.6,22.84,22.84,0,0,0-10.87,2.85,24.28,24.28,0,0,0-8.89,8.11,21.89,21.89,0,0,0-3.54,12.51v50.05h-18V218.5h18v17.09A33.19,33.19,0,0,1,871,222a27.79,27.79,0,0,1,16.13-5.35q6.39,0,9.84,1.73Z" transform="translate(-71.93 -75.76)"/><path d="M968.94,236.45h-21.4V309.1H929.59V236.45h-14.5v-16.4h14.5V208.32q0-11.74,7.51-19.25t19.41-7.5A23.13,23.13,0,0,1,968,184.15a25.11,25.11,0,0,1,6.64,5l-6,13.63a19,19,0,0,0-4.48-3.19,11.72,11.72,0,0,0-5.53-1.47q-6.21,0-8.63,2.94a11,11,0,0,0-2.41,7.25v11.73h21.4Z" transform="translate(-71.93 -75.76)"/><path d="M1070.94,263.72a48,48,0,0,1-6.13,24.42,44.8,44.8,0,0,1-16.57,16.65,45.82,45.82,0,0,1-23.38,6,46.32,46.32,0,0,1-23.48-6,44.5,44.5,0,0,1-16.65-16.65,51.71,51.71,0,0,1,0-48.84,44.45,44.45,0,0,1,16.65-16.66,46.32,46.32,0,0,1,23.48-6,45.82,45.82,0,0,1,23.38,6,44.75,44.75,0,0,1,16.57,16.66A48,48,0,0,1,1070.94,263.72Zm-18.13,0a32.55,32.55,0,0,0-3.53-16.14,27.55,27.55,0,0,0-10.1-10.87,27,27,0,0,0-14.32-3.89,27.27,27.27,0,0,0-24.6,14.76,32.66,32.66,0,0,0-3.54,16.14,32.25,32.25,0,0,0,3.54,16,28,28,0,0,0,10.19,11,27,27,0,0,0,14.41,4,26.55,26.55,0,0,0,14.32-4,28.22,28.22,0,0,0,10.1-11A32.14,32.14,0,0,0,1052.81,263.72Z" transform="translate(-71.93 -75.76)"/><path d="M1077.15,309.1,1112,263.72l-35-45.22h22.43l24.51,31.93,20.71-31.93h21l-32.1,44.7,35.21,45.9H1147l-24.85-32.27L1098,309.28Z" transform="translate(-71.93 -75.76)"/><path d="M76.48,328.56l1.93.93L202,411l93.94-62-.07-.12,29.51-19.3v0l6.53-4.26.13-249.64L239.2,219.52H164.78L71.93,75.76l0,249.85Zm77.66-103.77L83.75,305.53l0-189.77Zm18.51,6.52h58.67L202,266.85Zm14.78,41.61L97.88,307.34l62.8-72,30.1,36.46C189.64,272.13,188.53,272.5,187.43,272.92ZM90.65,323.44l101.26-38.92a27.84,27.84,0,0,1,4.18-1.24l0,109.73Zm222.71,0L207.91,393l0-109.73a27.16,27.16,0,0,1,4.18,1.24Zm-7.27-16.11-89.55-34.42c-1.1-.42-2.21-.79-3.35-1.12l30.1-36.46Zm14.16-191.58,0,189.77-70.39-80.74Z" transform="translate(-71.93 -75.76)"/></svg>