<svg id="Layer_1" data-name="Layer 1" xmlns="http://www.w3.org/2000/svg" viewBox="0 0 1091.33 342.53"><defs><style>.cls-1,.cls-6{fill:#fff;}.cls-1{opacity:0.26;}.cls-2,.cls-8{fill:#f86cff;}.cls-3{fill:#4958e2;}.cls-4{fill:#ffd3ff;}.cls-5{fill:#250045;}.cls-7{fill:#333;}.cls-8{opacity:0.28;}.cls-9{fill:#1a1a1a;}</style></defs><title>cfox-cartoon-black-web-00</title><path class="cls-1" d="M180.09,284.87c1.07-.21,2.14-.39,3.22-.55C182.23,284.48,181.16,284.66,180.09,284.87Z" transform="translate(-59.16 -71.72)"/><path class="cls-1" d="M172.62,286.75c.33-.1.66-.21,1-.3Z" transform="translate(-59.16 -71.72)"/><path class="cls-1" d="M189.17,283.74l1.68-.07Z" transform="translate(-59.16 -71.72)"/><path class="cls-1" d="M179.59,285q-2.4.48-4.77,1.14c1-.28,2.06-.55,3.1-.78Z" transform="translate(-59.16 -71.72)"/><path class="cls-1" d="M192.85,283.64h0l-1.56,0Z" transform="translate(-59.16 -71.72)"/><path class="cls-1" d="M183.52,284.29q.84-.12,1.68-.21Q184.36,284.17,183.52,284.29Z" transform="translate(-59.16 -71.72)"/><path class="cls-1" d="M185.68,284c1-.11,2.08-.2,3.13-.26C187.76,283.83,186.72,283.92,185.68,284Z" transform="translate(-59.16 -71.72)"/><polygon class="cls-2" points="77.08 227.91 97.78 220.55 78.75 227.32 77.08 227.91"/><polygon class="cls-1" points="77.08 227.91 97.78 220.55 78.75 227.32 77.08 227.91"/><polygon class="cls-3" points="16.77 234.97 0 255.32 0 255.32 0 255.32 16.77 234.97 16.77 234.97"/><polygon class="cls-1" points="16.77 234.97 0 255.32 0 255.32 0 255.32 16.77 234.97 16.77 234.97"/><polygon class="cls-3" points="75.14 164.15 87.38 149.29 75.14 164.15 75.14 164.15"/><polygon class="cls-1" points="75.14 164.15 87.38 149.29 75.14 164.15 75.14 164.15"/><path class="cls-4" d="M170.3,287.52c.77-.27,1.54-.53,2.32-.77C171.84,287,171.07,287.25,170.3,287.52Z" transform="translate(-59.16 -71.72)"/><path class="cls-1" d="M170.3,287.52c.77-.27,1.54-.53,2.32-.77C171.84,287,171.07,287.25,170.3,287.52Z" transform="translate(-59.16 -71.72)"/><path class="cls-4" d="M173.62,286.45l1.2-.35Z" transform="translate(-59.16 -71.72)"/><path class="cls-1" d="M173.62,286.45l1.2-.35Z" transform="translate(-59.16 -71.72)"/><polygon class="cls-5" points="69.1 230.75 77.08 227.91 69.1 230.75 69.1 230.75"/><polygon class="cls-1" points="69.1 230.75 77.08 227.91 69.1 230.75 69.1 230.75"/><polygon class="cls-5" points="102.63 218.83 102.63 218.83 97.78 220.55 102.63 218.83"/><polygon class="cls-1" points="102.63 218.83 102.63 218.83 97.78 220.55 102.63 218.83"/><path class="cls-6" d="M128.26,302.47l8-2.84,1.67-.59,19-6.77,4.84-1.72-18.63-5.36C133.43,282.49,124.59,293.07,128.26,302.47Z" transform="translate(-59.16 -71.72)"/><path class="cls-5" d="M183.31,284.32l.21,0Z" transform="translate(-59.16 -71.72)"/><path class="cls-1" d="M183.31,284.32l.21,0Z" transform="translate(-59.16 -71.72)"/><path class="cls-5" d="M188.81,283.77l.36,0Z" transform="translate(-59.16 -71.72)"/><path class="cls-1" d="M188.81,283.77l.36,0Z" transform="translate(-59.16 -71.72)"/><path class="cls-5" d="M179.59,285l.5-.09Z" transform="translate(-59.16 -71.72)"/><path class="cls-1" d="M179.59,285l.5-.09Z" transform="translate(-59.16 -71.72)"/><path class="cls-5" d="M190.85,283.67h0Z" transform="translate(-59.16 -71.72)"/><path class="cls-1" d="M190.85,283.67h0Z" transform="translate(-59.16 -71.72)"/><polygon class="cls-7" points="16.77 63.9 16.77 236.18 75.55 164.86 16.77 63.9"/><path class="cls-8" d="M210.87,286.1q-2.37-.66-4.77-1.14c.56.11,1.11.23,1.67.36C208.81,285.55,209.84,285.82,210.87,286.1Z" transform="translate(-59.16 -71.72)"/><polygon class="cls-8" points="192.24 164.15 180 149.29 192.24 164.15 192.24 164.15"/><polygon class="cls-8" points="267.38 255.32 250.6 234.97 250.6 234.97 267.38 255.32 195.43 229.74 189.52 227.64 165.5 219.09 165.5 219.09 156.25 215.8 156.24 215.8 156.25 215.8 267.38 255.32"/><path class="cls-8" d="M212.07,286.45c.34.09.67.2,1,.3C212.74,286.64,212.41,286.55,212.07,286.45Z" transform="translate(-59.16 -71.72)"/><path class="cls-8" d="M196.88,283.77c1.05.06,2.09.15,3.13.26C199,283.92,197.93,283.83,196.88,283.77Z" transform="translate(-59.16 -71.72)"/><path class="cls-8" d="M200.49,284.08q.84.09,1.68.21Q201.33,284.17,200.49,284.08Z" transform="translate(-59.16 -71.72)"/><path class="cls-8" d="M194.84,283.67l1.68.07Z" transform="translate(-59.16 -71.72)"/><path class="cls-8" d="M202.38,284.32c1.08.16,2.15.34,3.22.55C204.53,284.66,203.46,284.48,202.38,284.32Z" transform="translate(-59.16 -71.72)"/><path class="cls-8" d="M194.4,283.66l-1.55,0h0Z" transform="translate(-59.16 -71.72)"/><path class="cls-9" d="M59.16,327l133.69,87.2h0L326.53,327h0l-16.77-20.35v1.21L251,236.57l.42-.71,58.36-100V306.69L326.53,327V71.72L239.16,221H146.54L59.16,71.72V327l16.77-20.35V135.91l58.36,100,.42.7L75.93,307.9v-1.21L59.16,327l69.1-24.57c-3.67-9.4,5.17-20,14.89-17.28l18.63,5.36M179.59,285l.5-.09c1.07-.21,2.14-.39,3.22-.55l.21,0q.84-.12,1.68-.21l.48-.05c1-.11,2.08-.2,3.13-.26l.36,0,1.68-.07h.44l1.56,0,1.55,0h.44l1.68.07.36,0c1.05.06,2.09.15,3.13.26l.48.05q.84.09,1.68.21l.21,0c1.08.16,2.15.34,3.22.55l.5.09c.54.11,1.08.27,1.62.39l-1.36.94a19.13,19.13,0,0,1-27,0l-1.36-.94C178.51,285.23,179.05,285.07,179.59,285Zm13.26,80.81h0l-56.5-36.85,8.88-3.16,47.62,31.06h0l47.61-31.06,8.88,3.16Z" transform="translate(-59.16 -71.72)"/><polygon class="cls-4" points="278.8 243.9 278.8 243.9 278.8 243.9 278.8 243.9"/><polygon class="cls-8" points="278.8 243.9 278.8 243.9 278.8 243.9 278.8 243.9"/><polygon class="cls-5" points="190.18 257.2 181.3 254.04 133.69 285.1 133.69 294.05 190.18 257.2"/><polygon class="cls-6" points="181.3 254.04 133.69 285.1 133.69 285.1 86.08 254.04 77.19 257.2 133.69 294.05 133.69 294.05 190.18 257.2 181.3 254.04"/><polygon class="cls-5" points="189.52 227.64 195.43 229.74 165.5 219.09 165.5 219.09 189.52 227.64"/><polygon class="cls-8" points="189.52 227.64 195.43 229.74 165.5 219.09 165.5 219.09 189.52 227.64"/><path class="cls-6" d="M258.17,302.73c3.67-9.39-6.39-20.24-16.11-17.54l-17.4,5.62,29.92,10.65Z" transform="translate(-59.16 -71.72)"/><path class="cls-6" d="M206.1,285l-.5-.09c-1.07-.21-2.14-.39-3.22-.55l-.21,0q-.84-.12-1.68-.21L200,284c-1-.11-2.08-.2-3.13-.26l-.36,0-1.68-.07h-.44l-1.55,0-1.56,0h-.44l-1.68.07-.36,0c-1.05.06-2.09.15-3.13.26l-.48.05q-.84.09-1.68.21l-.21,0c-1.08.16-2.15.34-3.22.55l-.5.09c-.56.11-1.11.23-1.67.36l1.41,1a19.13,19.13,0,0,0,27,0l1.41-1C207.21,285.19,206.66,285.07,206.1,285Z" transform="translate(-59.16 -71.72)"/><path class="cls-5" d="M202.17,284.29l.21,0Z" transform="translate(-59.16 -71.72)"/><path class="cls-8" d="M202.17,284.29l.21,0Z" transform="translate(-59.16 -71.72)"/><path class="cls-5" d="M196.52,283.74l.36,0Z" transform="translate(-59.16 -71.72)"/><path class="cls-8" d="M196.52,283.74l.36,0Z" transform="translate(-59.16 -71.72)"/><path class="cls-5" d="M200,284l.48.05Z" transform="translate(-59.16 -71.72)"/><path class="cls-8" d="M200,284l.48.05Z" transform="translate(-59.16 -71.72)"/><path class="cls-5" d="M194.4,283.66h0Z" transform="translate(-59.16 -71.72)"/><path class="cls-8" d="M194.4,283.66h0Z" transform="translate(-59.16 -71.72)"/><path class="cls-5" d="M205.6,284.87l.5.09Z" transform="translate(-59.16 -71.72)"/><path class="cls-8" d="M205.6,284.87l.5.09Z" transform="translate(-59.16 -71.72)"/><polygon class="cls-7" points="250.6 63.9 191.83 164.86 250.6 236.18 250.6 63.9"/><path d="M407.85,238.52a31.08,31.08,0,0,0,4,15.89,30.46,30.46,0,0,0,10.64,11,26.65,26.65,0,0,0,14.17,4A25.38,25.38,0,0,0,451.64,265a51.94,51.94,0,0,0,10.3-9.28l9.79,12a37.19,37.19,0,0,1-8.93,8.67,50.44,50.44,0,0,1-12.88,6.53,46,46,0,0,1-15.11,2.49,41.47,41.47,0,0,1-22.32-6.18,44,44,0,0,1-15.71-16.83,52.59,52.59,0,0,1,0-47.82,44.16,44.16,0,0,1,15.71-16.74,41.47,41.47,0,0,1,22.32-6.18,47.94,47.94,0,0,1,22.32,5.06q9.78,5.07,14.6,13.14l-9.79,12a33.47,33.47,0,0,0-11.25-10.05,28.38,28.38,0,0,0-14.16-4.2,27.18,27.18,0,0,0-14.6,4,28.84,28.84,0,0,0-10.3,11A32.73,32.73,0,0,0,407.85,238.52Z" transform="translate(-59.16 -71.72)"/><path d="M488.38,283.68V156.62h17.68V283.68Z" transform="translate(-59.16 -71.72)"/><path d="M607,271.83h-.17q-5.49,5.32-15.11,9.45a50.62,50.62,0,0,1-20.09,4.12q-14.07,0-24.81-5.93a42.9,42.9,0,0,1-16.74-16.31,46.22,46.22,0,0,1-6-23.61q0-15.11,6.36-25.84a43.9,43.9,0,0,1,16.82-16.48,46.73,46.73,0,0,1,22.84-5.75,39.19,39.19,0,0,1,20.6,5.58,41.06,41.06,0,0,1,14.77,15.36q5.49,9.79,5.49,22.84l-.17,7.56h-69q1.54,12.18,10,19.31t21.55,7.13q9.45,0,15.28-3.52a71.59,71.59,0,0,0,9.62-6.78Zm-36.91-64a32.66,32.66,0,0,0-17.69,4.72q-7.54,4.73-10,16.23h50.48v-1.21a19.69,19.69,0,0,0-3.86-10.3,23.61,23.61,0,0,0-19-9.44Z" transform="translate(-59.16 -71.72)"/><path d="M639,193.54l26.27,64.39,27.3-64.39h18.2l-40,90.14H658L619.9,193.54Z" transform="translate(-59.16 -71.72)"/><path d="M801.74,271.83h-.18q-5.49,5.32-15.11,9.45a50.62,50.62,0,0,1-20.09,4.12q-14.07,0-24.81-5.93a42.9,42.9,0,0,1-16.74-16.31,46.22,46.22,0,0,1-6-23.61q0-15.11,6.36-25.84A43.9,43.9,0,0,1,742,197.23a46.73,46.73,0,0,1,22.84-5.75,39.19,39.19,0,0,1,20.6,5.58,41,41,0,0,1,14.77,15.36q5.49,9.79,5.49,22.84l-.17,7.56h-69q1.54,12.18,10,19.31t21.55,7.13q9.45,0,15.28-3.52A71.59,71.59,0,0,0,793,259Zm-36.92-64a32.66,32.66,0,0,0-17.69,4.72q-7.54,4.73-10,16.23h50.48v-1.21a19.79,19.79,0,0,0-3.87-10.3,23.61,23.61,0,0,0-19-9.44Z" transform="translate(-59.16 -71.72)"/><path d="M875.39,212.6a19.3,19.3,0,0,0-4.2-1.46,22.32,22.32,0,0,0-5.24-.6,22.79,22.79,0,0,0-10.82,2.83,24.36,24.36,0,0,0-8.84,8.07,21.76,21.76,0,0,0-3.52,12.45v49.79H824.91V193.54h17.86v17A33.07,33.07,0,0,1,854.19,197a27.62,27.62,0,0,1,16-5.32q6.36,0,9.79,1.72Z" transform="translate(-59.16 -71.72)"/><path d="M951.65,211.39H930.36v72.29H912.5V211.39H898.08V195.08H912.5V183.4q0-11.67,7.47-19.14t19.32-7.47a22.92,22.92,0,0,1,11.42,2.58,24.79,24.79,0,0,1,6.61,5l-6,13.56a19.15,19.15,0,0,0-4.47-3.18,11.64,11.64,0,0,0-5.49-1.46c-4.12,0-7,1-8.58,2.92a10.94,10.94,0,0,0-2.41,7.21v11.68h21.29Z" transform="translate(-59.16 -71.72)"/><path d="M1053.13,238.52a47.77,47.77,0,0,1-6.1,24.3,44.5,44.5,0,0,1-16.48,16.57,48.28,48.28,0,0,1-46.62,0,44.29,44.29,0,0,1-16.57-16.57,51.53,51.53,0,0,1,0-48.6,44.29,44.29,0,0,1,16.57-16.57,48.28,48.28,0,0,1,46.62,0A44.5,44.5,0,0,1,1047,214.22,47.77,47.77,0,0,1,1053.13,238.52Zm-18,0a32.41,32.41,0,0,0-3.52-16.05,27.3,27.3,0,0,0-10-10.82,26.81,26.81,0,0,0-14.25-3.86,27.06,27.06,0,0,0-24.46,14.68,32.19,32.19,0,0,0-3.52,16.05,31.83,31.83,0,0,0,3.52,15.88A27.78,27.78,0,0,0,993,265.31a26.89,26.89,0,0,0,14.33,3.95,26.44,26.44,0,0,0,14.25-3.95,28,28,0,0,0,10-10.91A32,32,0,0,0,1035.1,238.52Z" transform="translate(-59.16 -71.72)"/><path d="M1059.31,283.68,1094,238.52l-34.85-45h22.32l24.38,31.77,20.6-31.77h21L1115.46,238l35,45.68h-21.63l-24.73-32.11-24,32.28Z" transform="translate(-59.16 -71.72)"/></svg>