<svg id="Layer_1" data-name="Layer 1" xmlns="http://www.w3.org/2000/svg" xmlns:xlink="http://www.w3.org/1999/xlink" viewBox="0 0 1093.04 334.11"><defs><style>.cls-1{fill:#fff;}.cls-2{fill:url(#linear-gradient);}.cls-3{fill:url(#linear-gradient-2);}.cls-4{fill:url(#linear-gradient-3);}.cls-5{fill:url(#linear-gradient-4);}</style><linearGradient id="linear-gradient" x1="1229.08" y1="349.58" x2="900.06" y2="208.07" gradientUnits="userSpaceOnUse"><stop offset="0" stop-color="#1f4dcc"/><stop offset="0.5" stop-color="#9aceff"/><stop offset="1" stop-color="#ff94ff"/></linearGradient><linearGradient id="linear-gradient-2" x1="1234.71" y1="336.49" x2="905.69" y2="194.98" xlink:href="#linear-gradient"/><linearGradient id="linear-gradient-3" x1="1249.71" y1="301.63" x2="920.68" y2="160.11" xlink:href="#linear-gradient"/><linearGradient id="linear-gradient-4" x1="69.81" y1="223.63" x2="329.02" y2="223.63" gradientUnits="userSpaceOnUse"><stop offset="0" stop-color="#ff94ff"/><stop offset="0.51" stop-color="#9aceff"/><stop offset="1" stop-color="#1f4dcc"/></linearGradient></defs><title>cleverfox-outline-web-ff</title><path class="cls-1" d="M419,243.88a31.18,31.18,0,0,0,4,15.91,30.68,30.68,0,0,0,10.67,11,26.7,26.7,0,0,0,14.19,4,25.36,25.36,0,0,0,15-4.47,52.15,52.15,0,0,0,10.32-9.29l9.8,12A37.09,37.09,0,0,1,474,281.8a50.44,50.44,0,0,1-12.9,6.54A46.14,46.14,0,0,1,446,290.83a41.47,41.47,0,0,1-22.35-6.19,44.12,44.12,0,0,1-15.74-16.85,52.67,52.67,0,0,1,0-47.9,44.32,44.32,0,0,1,15.74-16.77A41.47,41.47,0,0,1,446,196.93,48,48,0,0,1,468.36,202q9.81,5.08,14.62,13.16l-9.8,12a33.46,33.46,0,0,0-11.27-10.06,28.36,28.36,0,0,0-14.19-4.22,27.22,27.22,0,0,0-14.61,4,28.94,28.94,0,0,0-10.32,11A32.71,32.71,0,0,0,419,243.88Z" transform="translate(-69.81 -56.57)"/><path class="cls-1" d="M499.66,289.11V161.85h17.71V289.11Z" transform="translate(-69.81 -56.57)"/><path class="cls-1" d="M618.5,277.24h-.17q-5.51,5.34-15.14,9.46a50.6,50.6,0,0,1-20.12,4.13q-14.1,0-24.85-5.93a42.92,42.92,0,0,1-16.77-16.34,46.4,46.4,0,0,1-6-23.65q0-15.14,6.37-25.88a43.91,43.91,0,0,1,16.85-16.51,46.74,46.74,0,0,1,22.87-5.76,39.22,39.22,0,0,1,20.64,5.59A41,41,0,0,1,617,217.74q5.5,9.8,5.5,22.87l-.17,7.57H553.15q1.54,12.21,10.06,19.35t21.58,7.13q9.47,0,15.31-3.52a71.73,71.73,0,0,0,9.63-6.79Zm-37-64.15a32.74,32.74,0,0,0-17.71,4.73q-7.57,4.74-10,16.26H604.4v-1.21a19.89,19.89,0,0,0-3.87-10.32,23.66,23.66,0,0,0-19-9.46Z" transform="translate(-69.81 -56.57)"/><path class="cls-1" d="M650.49,198.82l26.31,64.49,27.35-64.49h18.23l-40.07,90.29H669.58L631.4,198.82Z" transform="translate(-69.81 -56.57)"/><path class="cls-1" d="M813.53,277.24h-.18q-5.51,5.34-15.13,9.46a50.6,50.6,0,0,1-20.12,4.13q-14.1,0-24.85-5.93a42.92,42.92,0,0,1-16.77-16.34,46.3,46.3,0,0,1-6-23.65q0-15.14,6.36-25.88a43.87,43.87,0,0,1,16.86-16.51,46.74,46.74,0,0,1,22.87-5.76,39.22,39.22,0,0,1,20.64,5.59A41,41,0,0,1,812,217.74q5.5,9.8,5.5,22.87l-.17,7.57H748.17q1.56,12.21,10.07,19.35t21.58,7.13q9.45,0,15.31-3.52a72.39,72.39,0,0,0,9.63-6.79Zm-37-64.15a32.71,32.71,0,0,0-17.71,4.73q-7.58,4.74-10,16.26h50.57v-1.21a19.89,19.89,0,0,0-3.87-10.32,23.7,23.7,0,0,0-19-9.46Z" transform="translate(-69.81 -56.57)"/><path class="cls-1" d="M887.31,217.91a20.26,20.26,0,0,0-4.22-1.46,22.32,22.32,0,0,0-5.24-.6A22.77,22.77,0,0,0,867,218.69a24.25,24.25,0,0,0-8.85,8.08,21.75,21.75,0,0,0-3.53,12.47v49.87H836.74V198.82h17.89v17a33.1,33.1,0,0,1,11.44-13.59,27.72,27.72,0,0,1,16.08-5.33c4.24,0,7.5.57,9.8,1.72Z" transform="translate(-69.81 -56.57)"/><path class="cls-2" d="M963.69,216.7H942.36v72.41H924.48V216.7H910V200.37h14.45v-11.7q0-11.7,7.48-19.17T951.3,162a23,23,0,0,1,11.44,2.58,25,25,0,0,1,6.62,5l-6,13.59a18.19,18.19,0,0,0-4.47-3.18,11.58,11.58,0,0,0-5.5-1.47q-6.2,0-8.6,2.93a11,11,0,0,0-2.41,7.22v11.7h21.33Z" transform="translate(-69.81 -56.57)"/><path class="cls-3" d="M1065.33,243.88a47.78,47.78,0,0,1-6.11,24.33,44.51,44.51,0,0,1-16.51,16.6,45.68,45.68,0,0,1-23.3,6,46.17,46.17,0,0,1-23.39-6,44.38,44.38,0,0,1-16.6-16.6,51.59,51.59,0,0,1,0-48.67,44.45,44.45,0,0,1,16.6-16.6,46.16,46.16,0,0,1,23.39-6,45.67,45.67,0,0,1,23.3,6,44.58,44.58,0,0,1,16.51,16.6A47.82,47.82,0,0,1,1065.33,243.88Zm-18.06,0a32.53,32.53,0,0,0-3.52-16.08A27.4,27.4,0,0,0,1033.68,217a26.92,26.92,0,0,0-14.27-3.87A27.12,27.12,0,0,0,994.9,227.8a32.42,32.42,0,0,0-3.52,16.08,32.08,32.08,0,0,0,3.52,15.91,27.92,27.92,0,0,0,10.15,10.92,27,27,0,0,0,14.36,4,26.53,26.53,0,0,0,14.27-4,28.1,28.1,0,0,0,10.07-10.92A32.19,32.19,0,0,0,1047.27,243.88Z" transform="translate(-69.81 -56.57)"/><path class="cls-4" d="M1071.52,289.11l34.74-45.23-34.91-45.06h22.36l24.42,31.81,20.63-31.81h21l-32,44.54,35.08,45.75h-21.67L1116.41,257l-24.08,32.33Z" transform="translate(-69.81 -56.57)"/><path class="cls-5" d="M74.34,308.5l1.92.93,123.17,81.25,93.62-61.76-.07-.11,29.4-19.23h0l6.5-4.24L329,56.57,236.49,199.84H162.33L69.81,56.57l0,249Zm77.4-103.41L81.59,285.55l0-189.11Zm18.44,6.5h58.46L199.41,247Zm14.73,41.46-89.24,34.3,62.58-71.75,30,36.34Q186.55,252.42,184.91,253.05ZM88.46,303.39l100.91-38.78a28.56,28.56,0,0,1,4.17-1.24l0,109.35Zm221.93,0L205.31,372.72l0-109.35a28.43,28.43,0,0,1,4.16,1.24Zm-7.24-16-89.24-34.3q-1.64-.63-3.33-1.11l30-36.34ZM317.26,96.44l0,189.11-70.15-80.46Z" transform="translate(-69.81 -56.57)"/></svg>