<svg id="Layer_1" data-name="Layer 1" xmlns="http://www.w3.org/2000/svg" xmlns:xlink="http://www.w3.org/1999/xlink" viewBox="0 0 1092.13 337.27"><defs><style>.cls-1{fill:#fff;}.cls-2{fill:#f86cff;}.cls-3{fill:#fa92ff;}.cls-4{fill:#4958e2;}.cls-5{fill:#7883ea;}.cls-6{fill:#9ba3ef;}.cls-7{fill:#ffd3ff;}.cls-8{fill:#ffdeff;}.cls-9{fill:#250045;}.cls-10{fill:#5d4275;}.cls-11{fill:#ffe7ff;}.cls-12{fill:#fbaeff;}.cls-13{fill:#99c7ff;}.cls-14{fill:#b5bbf3;}.cls-15{fill:#b3d5ff;}.cls-16{fill:#c7e0ff;}.cls-17{fill:#fdd6ff;}.cls-18{fill:#7a5eea;}.cls-19{fill:#fdb6ff;}.cls-20{fill:#601e79;}.cls-21{fill:#b3aeff;}.cls-22{fill:#ffedff;}.cls-23{fill:url(#linear-gradient);}.cls-24{fill:url(#linear-gradient-2);}.cls-25{fill:url(#linear-gradient-3);}</style><linearGradient id="linear-gradient" x1="1228.47" y1="701.78" x2="902.47" y2="561.56" gradientUnits="userSpaceOnUse"><stop offset="0" stop-color="#1f4dcc"/><stop offset="0.5" stop-color="#9aceff"/><stop offset="1" stop-color="#ff94ff"/></linearGradient><linearGradient id="linear-gradient-2" x1="1234.05" y1="688.81" x2="908.05" y2="548.59" xlink:href="#linear-gradient"/><linearGradient id="linear-gradient-3" x1="1248.91" y1="654.27" x2="922.9" y2="514.05" xlink:href="#linear-gradient"/></defs><title>cleverfox-cartoon-web-ff</title><path class="cls-1" d="M185.74,621.82l-1.14.31,1.14-.31m0,0h0" transform="translate(-70.71 -411.03)"/><path class="cls-1" d="M202.35,619.69l-1.54,0,1.54,0h0" transform="translate(-70.71 -411.03)"/><polyline class="cls-2" points="75.89 224.42 96.28 217.17 77.54 223.83 75.89 224.42"/><path class="cls-2" d="M144.69,572.66l.41.7L87.22,643.59V642.4l-16.51,20,68-24.2c-3.61-9.25,5.1-19.67,14.67-17l18.34,5.27,8.37-3h0c.75-.27,1.52-.52,2.28-.76l1-.3c.4-.11.79-.23,1.19-.33,1.55-.44,3.12-.81,4.7-1.13l.48-.09c1.06-.2,2.11-.38,3.17-.54l.21,0,1.66-.21.47,0c1-.11,2.05-.19,3.08-.25l.36,0,1.66-.07h.42l1.54,0V558h-45.6l-12.06,14.63" transform="translate(-70.71 -411.03)"/><path class="cls-3" d="M189.3,621l.48-.09-.48.09m0,0,.48-.09-.48.09m3.65-.63.21,0-.21,0m0,0,.21,0-.21,0m1.87-.24.47,0-.47,0m0,0,.47,0-.47,0m3.55-.3.36,0-.36,0m0,0,.36,0-.36,0m2-.1h0m0,0h0m2-61.7h-45.6l-12.06,14.63.41.7L87.22,643.59V642.4l-16.51,20,68-24.18a12.07,12.07,0,0,1-.79-4.37c0-6.81,5.6-13,12.39-13.08h.06a11.13,11.13,0,0,1,2.88.38l.17,0,18.34,5.27,8.37-3h0c.75-.27,1.52-.52,2.28-.76h0l1-.3h0c.4-.11.79-.23,1.19-.33h0l1.14-.31h0c.62-.16,1.25-.32,1.87-.46h0l1.65-.35.48-.09c1.06-.21,2.11-.38,3.17-.54l.21,0,1.66-.21.47,0c1-.11,2.05-.19,3.08-.25l.36,0,1.66-.07h.42l1.54,0V558" transform="translate(-70.71 -411.03)"/><polyline class="cls-4" points="16.52 63.21 73.98 161.63 86.04 147 0 0 0 251.41 16.52 231.37 16.52 63.21"/><polyline class="cls-5" points="0 0 0 251.41 16.52 231.37 16.52 184.77 0 204.81 16.52 184.77 0 204.81 16.52 184.77 16.52 63.21 73.98 161.63 86.04 147 0 0"/><polyline class="cls-4" points="16.52 184.77 0 204.81 16.52 184.77"/><polyline class="cls-6" points="16.52 184.77 0 204.81 16.52 184.77"/><polyline class="cls-4" points="73.98 161.63 86.04 147 73.98 161.63"/><polyline class="cls-6" points="86.04 147 73.98 161.63 86.04 147"/><path class="cls-7" d="M202.35,700.57l-55.63-36.28,8.74-3.11,46.89,30.58V627.82A18.77,18.77,0,0,1,189,622.31l-1.39-1c-1,.23-2,.5-3.05.78l-1.19.33-1,.3c-.76.24-1.53.49-2.28.76h0L70.71,662.44,202.35,748.3V700.57" transform="translate(-70.71 -411.03)"/><path class="cls-8" d="M187.65,621.35c-.63.15-1.27.3-1.9.47h0l-1.14.31h0l-1.19.33h0l-1,.3h0c-.76.24-1.53.49-2.28.76h0l-8.37,3h0l-.21.08.21-.08-.21.08.21-.08-.21.08.21.06L167,628.33,148.25,635l-1.65.58-7.85,2.79s0-.07,0-.11l-68,24.18L202.35,748.3V700.57l-55.63-36.28,8.74-3.11,46.89,30.58V627.82A18.77,18.77,0,0,1,189,622.31l-1.39-1" transform="translate(-70.71 -411.03)"/><path class="cls-7" d="M180.15,623.52c.75-.27,1.52-.52,2.28-.76-.76.24-1.53.49-2.28.76" transform="translate(-70.71 -411.03)"/><path class="cls-8" d="M182.43,622.76c-.76.24-1.53.49-2.28.76.75-.27,1.52-.52,2.28-.76" transform="translate(-70.71 -411.03)"/><path class="cls-7" d="M183.41,622.46l1.19-.33c-.4.1-.79.22-1.19.33" transform="translate(-70.71 -411.03)"/><path class="cls-8" d="M184.6,622.13c-.4.1-.79.22-1.19.33l1.19-.33" transform="translate(-70.71 -411.03)"/><polyline class="cls-9" points="84.75 250.15 76.01 253.26 131.64 289.54 131.64 280.73 84.75 250.15"/><polyline class="cls-10" points="84.75 250.15 76.01 253.26 131.64 289.54 131.64 280.73 84.75 250.15"/><polyline class="cls-9" points="68.04 227.21 75.89 224.42 68.04 227.21"/><polyline class="cls-9" points="101.05 215.47 96.28 217.17 101.05 215.47"/><polyline class="cls-11" points="101.05 215.47 100.84 215.54 101.05 215.47"/><path class="cls-9" d="M138.75,638.24l7.85-2.79,1.65-.59L167,628.2l4.77-1.7-18.34-5.27c-9.57-2.66-18.28,7.76-14.67,17" transform="translate(-70.71 -411.03)"/><path class="cls-9" d="M189,622.31a18.77,18.77,0,0,0,13.31,5.51V619.7l-1.54,0h-.42l-1.66.07-.36,0c-1,.06-2.06.14-3.08.25l-.47,0-1.66.21-.21,0c-1.06.16-2.11.33-3.17.54l-.48.09-1.65.35,1.39,1" transform="translate(-70.71 -411.03)"/><path class="cls-10" d="M202.35,619.7h0l-1.54,0h-.42l-1.66.07-.36,0c-1,.06-2.06.14-3.08.25l-.47,0-1.66.21-.21,0c-1.06.16-2.11.33-3.17.54l-.48.09-1.65.35,1.39,1a18.77,18.77,0,0,0,13.31,5.51V619.7" transform="translate(-70.71 -411.03)"/><polyline class="cls-9" points="122.24 209.34 122.45 209.31 122.24 209.34"/><polyline class="cls-12" points="122.45 209.31 122.24 209.34 122.45 209.31"/><polyline class="cls-9" points="127.66 208.79 128.02 208.77 127.66 208.79"/><polyline class="cls-12" points="128.02 208.77 127.66 208.79 128.02 208.77"/><polyline class="cls-9" points="118.59 209.97 119.08 209.88 118.59 209.97"/><polyline class="cls-12" points="119.08 209.88 118.59 209.97 119.08 209.88"/><polyline class="cls-9" points="129.68 208.7 130.1 208.69 129.68 208.7"/><polyline class="cls-12" points="130.1 208.69 129.68 208.7 130.1 208.69"/><polyline class="cls-9" points="124.11 209.1 124.58 209.05 124.11 209.1"/><polyline class="cls-12" points="124.58 209.05 124.11 209.1 124.58 209.05"/><polyline class="cls-13" points="16.52 232.56 74.39 162.33 73.98 161.63 16.52 231.37 16.52 232.56"/><line class="cls-5" x1="73.98" y1="161.63" x2="73.98" y2="161.63"/><line class="cls-14" x1="73.98" y1="161.63" x2="73.98" y2="161.63"/><polyline class="cls-15" points="73.98 161.63 16.52 231.37 16.52 232.56 74.39 162.33 73.98 161.63"/><polyline class="cls-13" points="16.52 63.21 16.52 231.37 73.98 161.63 16.52 63.21"/><polyline class="cls-15" points="16.52 63.21 16.52 231.37 73.98 161.63 16.52 231.37 73.98 161.63 16.52 231.37 73.98 161.63 16.52 63.21"/><polyline class="cls-13" points="16.52 231.37 73.98 161.63 16.52 231.37"/><polyline class="cls-16" points="73.98 161.63 16.52 231.37 73.98 161.63"/><path class="cls-17" d="M218.87,621.8c.41.1.81.21,1.22.33-.41-.12-.81-.23-1.22-.33" transform="translate(-70.71 -411.03)"/><path class="cls-17" d="M202.35,619.69h0l1.53,0-1.53,0" transform="translate(-70.71 -411.03)"/><path class="cls-2" d="M203.88,619.72h.42l1.66.07.36,0c1,.06,2.06.14,3.09.25l.46,0,1.66.21.21,0c1.06.16,2.11.33,3.17.54l.49.09c1.57.32,3.14.69,4.69,1.13.4.1.79.22,1.19.33l1,.3c.77.24,1.53.49,2.29.76h0l9.11,3.24,17.13-5.53c9.57-2.66,19.48,8,15.87,17.27l-3.53-1.26L334,662.44l-16.51-20v1.19l-57.88-70.23.41-.7L248,558h-45.6v61.66l1.53,0" transform="translate(-70.71 -411.03)"/><path class="cls-2" d="M215.4,621l-.49-.09.49.09m0,0-.49-.09.49.09m-3.66-.63-.21,0,.21,0m0,0-.21,0,.21,0m-1.87-.24-.46,0,.46,0m0,0-.46,0,.46,0m-3.55-.3-.36,0,.36,0m0,0-.36,0,.36,0m-2-.1h0m0,0h0M248,558h-45.6v61.66l1.53,0h.42l1.66.07.36,0c1,.06,2.06.14,3.09.25l.46,0,1.66.21.21,0c1.06.16,2.12.33,3.17.54l.49.09,1.64.35h0l1.83.45c.41.1.81.21,1.22.33h0c.4.1.79.22,1.19.33h0l1,.3h0c.77.24,1.53.49,2.29.76h0l9.11,3.24,17.13-5.53a11.41,11.41,0,0,1,3-.41c7.12,0,13.61,6.63,13.59,13.66a10.94,10.94,0,0,1-.76,4L334,662.44l-16.51-20v1.19l-57.88-70.23.41-.7L248,558" transform="translate(-70.71 -411.03)"/><polyline class="cls-4" points="246.76 63.21 246.76 231.37 263.27 251.41 263.27 0 177.24 147 189.29 161.63 246.76 63.21"/><path class="cls-18" d="M334,662.44h0M334,411,248,558,260,572.66l57.47-98.42V642.4l16.51,20V411" transform="translate(-70.71 -411.03)"/><path class="cls-7" d="M334,662.44,224.56,623.52h0c-.76-.27-1.53-.52-2.29-.76l-1-.3-1.19-.33c-1-.28-2-.55-3.05-.78l-1.39,1a18.76,18.76,0,0,1-13.3,5.51v63.94l46.88-30.58,8.75,3.11-55.63,36.28V748.3L334,662.44" transform="translate(-70.71 -411.03)"/><polyline class="cls-2" points="195.96 227.47 195.96 227.47 263.27 251.41 195.96 227.47"/><path class="cls-19" d="M217,621.35l-1.39,1a18.76,18.76,0,0,1-13.3,5.51v63.94l46.88-30.58,8.75,3.11-55.63,36.28V748.3L334,662.44,266.67,638.5l-8-2.84,4.45,1.58-29.47-10.48,20.59,7.33-20.59-7.33-9.11-3.24h0c-.76-.27-1.53-.52-2.29-.76h0l-1-.3h0l-1.19-.33h0c-1-.28-2-.55-3.05-.78" transform="translate(-70.71 -411.03)"/><path class="cls-7" d="M222.26,622.76c.76.24,1.53.49,2.29.76-.76-.27-1.52-.52-2.29-.76" transform="translate(-70.71 -411.03)"/><path class="cls-19" d="M222.26,622.76c.76.24,1.53.49,2.29.76-.76-.27-1.52-.52-2.29-.76" transform="translate(-70.71 -411.03)"/><path class="cls-7" d="M220.09,622.13l1.19.33c-.4-.11-.79-.23-1.19-.33" transform="translate(-70.71 -411.03)"/><path class="cls-19" d="M220.09,622.13l1.19.33c-.4-.11-.79-.23-1.19-.33" transform="translate(-70.71 -411.03)"/><polygon class="cls-9" points="187.27 253.26 178.52 250.15 131.64 280.73 131.64 289.54 187.27 253.26"/><polygon class="cls-9" points="187.27 253.26 178.52 250.15 131.64 280.73 131.64 289.54 187.27 253.26"/><polyline class="cls-9" points="186.61 224.15 192.43 226.21 162.96 215.73 186.61 224.15"/><polyline class="cls-20" points="162.96 215.73 192.43 226.21 186.61 224.15 162.96 215.73"/><path class="cls-9" d="M266.67,638.5c3.61-9.25-6.3-19.93-15.87-17.27l-17.13,5.53,29.47,10.48Z" transform="translate(-70.71 -411.03)"/><path class="cls-9" d="M266.67,638.5c3.61-9.25-6.3-19.93-15.87-17.27l-17.13,5.53,29.47,10.48Z" transform="translate(-70.71 -411.03)"/><path class="cls-9" d="M202.35,627.82a18.76,18.76,0,0,0,13.3-5.51l1.39-1L215.4,621l-.49-.09c-1-.21-2.11-.38-3.17-.54l-.21,0-1.66-.21-.46,0c-1-.11-2.06-.19-3.09-.25l-.36,0-1.66-.07h-.42l-1.53,0v8.12" transform="translate(-70.71 -411.03)"/><path class="cls-9" d="M202.35,627.82a18.76,18.76,0,0,0,13.3-5.51l1.39-1L215.4,621l-.49-.09c-1-.21-2.11-.38-3.17-.54l-.21,0-1.66-.21-.46,0c-1-.11-2.06-.19-3.09-.25l-.36,0-1.66-.07h-.42l-1.53,0v8.12" transform="translate(-70.71 -411.03)"/><polyline class="cls-9" points="140.82 209.31 141.03 209.34 140.82 209.31"/><polyline class="cls-2" points="140.82 209.31 141.03 209.34 140.82 209.31"/><polyline class="cls-9" points="135.25 208.77 135.61 208.79 135.25 208.77"/><polyline class="cls-2" points="135.25 208.77 135.61 208.79 135.25 208.77"/><polyline class="cls-9" points="138.7 209.05 139.16 209.1 138.7 209.05"/><polyline class="cls-2" points="138.7 209.05 139.16 209.1 138.7 209.05"/><polyline class="cls-9" points="133.17 208.69 133.59 208.7 133.17 208.69"/><polyline class="cls-2" points="133.17 208.69 133.59 208.7 133.17 208.69"/><polyline class="cls-9" points="144.2 209.88 144.69 209.97 144.2 209.88"/><polyline class="cls-2" points="144.2 209.88 144.69 209.97 144.2 209.88"/><polyline class="cls-13" points="189.29 161.63 246.76 231.37 189.29 161.63"/><polyline class="cls-13" points="188.88 162.33 246.76 232.56 246.76 231.37 189.29 161.63 188.88 162.33"/><polyline class="cls-21" points="189.29 161.63 189.29 161.63 188.88 162.33 246.76 232.56 246.76 231.37 189.29 161.63"/><polyline class="cls-13" points="246.76 63.21 189.29 161.63 246.76 231.37 246.76 63.21"/><polyline class="cls-21" points="246.76 63.21 189.29 161.63 246.76 231.37 246.76 63.21"/><path class="cls-1" d="M138.67,638c0,.06.05.13.08.2h0c0-.07-.05-.14-.08-.2m-.16-.46s0,.09.05.13,0-.09-.05-.13m13.6-4.09-3.86,1.37-1.65.59-2.35.83,2.35-.83-2.35.83,2.35-.83-2.35.83,7.86-2.79" transform="translate(-70.71 -411.03)"/><path class="cls-12" d="M137.92,633.89a12.07,12.07,0,0,0,.79,4.37l0,0c0-.07-.05-.14-.08-.2l-.11-.33s0-.09-.05-.13a11.9,11.9,0,0,1-.59-3.69" transform="translate(-70.71 -411.03)"/><path class="cls-11" d="M171.55,626.58,167,628.2l-14.88,5.29-7.86,2.79-5.5,2,5.5-2-5.5,2,5.5-2-5.5,2h0l0,0s0,.08,0,.11l7.85-2.79,1.65-.58L167,628.33l4.77-1.69-.21-.06L167,628.2l4.56-1.62L167,628.2l4.56-1.62" transform="translate(-70.71 -411.03)"/><polyline class="cls-10" points="75.89 224.42 73.54 225.25 68.04 227.21 73.54 225.25 75.89 224.42"/><polyline class="cls-1" points="75.89 224.42 73.54 225.25 75.89 224.42"/><polyline class="cls-22" points="73.54 225.25 73.54 225.25 68.04 227.21 73.54 225.25"/><polyline class="cls-10" points="100.84 215.54 96.28 217.17 100.84 215.54"/><polyline class="cls-22" points="100.84 215.54 96.28 217.17 100.84 215.54"/><path class="cls-10" d="M150.36,620.94c-6.77,0-12.41,6.17-12.44,12.95a11.9,11.9,0,0,0,.59,3.69h0s0,.09.05.13h0l.11.33h0c0,.06.05.13.08.2h0l5.5-2,2.35-.83,1.65-.59,3.86-1.37L167,628.2l4.56-1.62-18.13-5.22a11.74,11.74,0,0,0-3.06-.42" transform="translate(-70.71 -411.03)"/><path class="cls-1" d="M425.83,597.05a30.83,30.83,0,0,0,4,15.76,30.29,30.29,0,0,0,10.57,10.9,26.43,26.43,0,0,0,14.06,4,25.13,25.13,0,0,0,14.82-4.43,51.47,51.47,0,0,0,10.23-9.2L489.22,626a36.64,36.64,0,0,1-8.86,8.61,50.15,50.15,0,0,1-12.78,6.48,45.82,45.82,0,0,1-15,2.47,41.15,41.15,0,0,1-22.15-6.14,43.62,43.62,0,0,1-15.59-16.7,52.14,52.14,0,0,1,0-47.45,43.82,43.82,0,0,1,15.59-16.62,41.14,41.14,0,0,1,22.15-6.13,47.49,47.49,0,0,1,22.15,5q9.72,5,14.49,13l-9.71,11.93a33.17,33.17,0,0,0-11.17-10,28.15,28.15,0,0,0-14-4.18,27,27,0,0,0-14.49,4,28.53,28.53,0,0,0-10.22,10.9A32.5,32.5,0,0,0,425.83,597.05Z" transform="translate(-70.71 -411.03)"/><path class="cls-1" d="M505.75,641.86V515.76H523.3v126.1Z" transform="translate(-70.71 -411.03)"/><path class="cls-1" d="M623.49,630.1h-.17q-5.45,5.29-15,9.38a50.25,50.25,0,0,1-19.94,4.09q-14,0-24.62-5.88a42.63,42.63,0,0,1-16.62-16.19,46,46,0,0,1-6-23.43q0-15,6.3-25.65a43.69,43.69,0,0,1,16.7-16.36,46.39,46.39,0,0,1,22.67-5.7,38.92,38.92,0,0,1,20.45,5.53A40.78,40.78,0,0,1,622,571.15q5.46,9.71,5.45,22.66l-.17,7.5h-68.5q1.53,12.09,10,19.17t21.39,7.07q9.36,0,15.16-3.49a70.11,70.11,0,0,0,9.54-6.74Zm-36.63-63.56a32.42,32.42,0,0,0-17.55,4.69q-7.5,4.69-9.89,16.1h50.1v-1.19a19.56,19.56,0,0,0-3.83-10.22,23,23,0,0,0-8.27-6.9A23.24,23.24,0,0,0,586.86,566.54Z" transform="translate(-70.71 -411.03)"/><path class="cls-1" d="M655.19,552.4l26.07,63.9,27.1-63.9h18.06l-39.7,89.46H674.11L636.28,552.4Z" transform="translate(-70.71 -411.03)"/><path class="cls-1" d="M816.73,630.1h-.17q-5.46,5.29-15,9.38a50.25,50.25,0,0,1-19.94,4.09q-14,0-24.62-5.88a42.63,42.63,0,0,1-16.62-16.19,45.87,45.87,0,0,1-6-23.43q0-15,6.3-25.65a43.62,43.62,0,0,1,16.7-16.36,46.39,46.39,0,0,1,22.67-5.7,38.88,38.88,0,0,1,20.44,5.53,40.72,40.72,0,0,1,14.66,15.26q5.44,9.71,5.45,22.66l-.17,7.5H752q1.53,12.09,10,19.17t21.38,7.07q9.38,0,15.17-3.49a70.11,70.11,0,0,0,9.54-6.74ZM780.1,566.54a32.48,32.48,0,0,0-17.56,4.69q-7.5,4.69-9.88,16.1h50.1v-1.19a19.56,19.56,0,0,0-3.83-10.22,23.47,23.47,0,0,0-18.83-9.38Z" transform="translate(-70.71 -411.03)"/><path class="cls-1" d="M889.83,571.32a19.76,19.76,0,0,0-4.17-1.45,22,22,0,0,0-5.2-.6,22.66,22.66,0,0,0-10.73,2.81,24.27,24.27,0,0,0-8.78,8,21.62,21.62,0,0,0-3.49,12.36v49.41H839.74V552.4h17.72v16.87a32.83,32.83,0,0,1,11.33-13.46,27.45,27.45,0,0,1,15.93-5.28q6.3,0,9.72,1.7Z" transform="translate(-70.71 -411.03)"/><path class="cls-23" d="M965.51,570.12H944.39v71.74H926.66V570.12H912.35V553.93h14.31V542.34q0-11.58,7.42-19t19.17-7.41a22.69,22.69,0,0,1,11.33,2.56,24.63,24.63,0,0,1,6.56,4.94l-6,13.46a18.6,18.6,0,0,0-4.43-3.15,11.44,11.44,0,0,0-5.45-1.45q-6.13,0-8.52,2.9a10.88,10.88,0,0,0-2.38,7.15v11.59h21.12Z" transform="translate(-70.71 -411.03)"/><path class="cls-24" d="M1066.22,597a47.42,47.42,0,0,1-6,24.12,44.17,44.17,0,0,1-16.35,16.44,45.24,45.24,0,0,1-23.09,6,45.71,45.71,0,0,1-23.18-6,44,44,0,0,1-16.44-16.44,51.09,51.09,0,0,1,0-48.23,44,44,0,0,1,16.44-16.44,45.71,45.71,0,0,1,23.18-6,45.25,45.25,0,0,1,23.09,6,44.17,44.17,0,0,1,16.35,16.44A47.41,47.41,0,0,1,1066.22,597Zm-17.89,0a32.2,32.2,0,0,0-3.49-15.93,27.2,27.2,0,0,0-10-10.73,26.64,26.64,0,0,0-14.14-3.84,26.92,26.92,0,0,0-24.29,14.57A32.2,32.2,0,0,0,993,597a31.87,31.87,0,0,0,3.49,15.77,27.64,27.64,0,0,0,10.06,10.82,26.7,26.7,0,0,0,14.23,3.92,26.26,26.26,0,0,0,14.14-3.92,27.94,27.94,0,0,0,10-10.82A31.87,31.87,0,0,0,1048.33,597Z" transform="translate(-70.71 -411.03)"/><path class="cls-25" d="M1072.36,641.86,1106.78,597l-34.59-44.64h22.15l24.2,31.52L1139,552.4h20.78l-31.69,44.13,34.76,45.33h-21.47L1116.83,610,1093,642Z" transform="translate(-70.71 -411.03)"/></svg>