<svg id="Layer_1" data-name="Layer 1" xmlns="http://www.w3.org/2000/svg" viewBox="0 0 441.55 560.49"><title>cfox-outline-black</title><path d="M848.85,535.05l49.23-32.17,8.82-5.81,0,0,6-3.9V268.45h.2l0-190.37-154,238.51H625.61l-154-238.51,0,248.93h0V493.57l5.87,3.84.33-.38L692.39,638.57,849,535.26ZM901.3,118.17l0,354.44L769.78,321.8ZM763.74,333,887.11,474.49,716,408.72a65.78,65.78,0,0,0-12-3.34Zm-83.07,72.35a65.65,65.65,0,0,0-12,3.34l-27.84,10.7-27.62,10.16-20.53,8.35-95.13,36.56L621,333ZM483.4,118.17,614.91,321.8,483.43,472.61Zm6.93,373,183-70.35a52.88,52.88,0,0,1,13.07-3.18l0,202.92Zm202-90.16-59.88-72.55H752.22Zm5.91,16.63a52.91,52.91,0,0,1,13.06,3.18l183.1,70.37L698.3,620.51Z" transform="translate(-471.57 -78.08)"/></svg>