<svg id="Layer_1" data-name="Layer 1" xmlns="http://www.w3.org/2000/svg" viewBox="0 0 456.21 560.49"><defs><style>.cls-1,.cls-6{fill:#fff;}.cls-1{opacity:0.26;}.cls-2,.cls-8{fill:#f86cff;}.cls-3{fill:#4958e2;}.cls-4{fill:#ffd3ff;}.cls-5{fill:#250045;}.cls-7{fill:#333;}.cls-8{opacity:0.28;}.cls-9{fill:#1a1a1a;}</style></defs><title>cfox-cartoon-black</title><path class="cls-1" d="M247.14,408.88c1.75-.33,3.5-.63,5.26-.88C250.64,408.25,248.89,408.55,247.14,408.88Z" transform="translate(-49.25 -60.1)"/><path class="cls-1" d="M234.92,412l1.63-.49Z" transform="translate(-49.25 -60.1)"/><path class="cls-1" d="M262,407.05l2.75-.12Z" transform="translate(-49.25 -60.1)"/><path class="cls-1" d="M246.32,409c-2.61.53-5.22,1.15-7.8,1.87q2.52-.71,5.07-1.29C244.5,409.42,245.41,409.22,246.32,409Z" transform="translate(-49.25 -60.1)"/><path class="cls-1" d="M268,406.88v0c-.85,0-1.69,0-2.54.06C266.32,406.9,267.16,406.88,268,406.88Z" transform="translate(-49.25 -60.1)"/><path class="cls-1" d="M252.75,407.94c.92-.12,1.84-.24,2.76-.34C254.59,407.7,253.67,407.82,252.75,407.94Z" transform="translate(-49.25 -60.1)"/><path class="cls-1" d="M256.28,407.51c1.71-.18,3.42-.32,5.13-.43C259.7,407.19,258,407.33,256.28,407.51Z" transform="translate(-49.25 -60.1)"/><polygon class="cls-2" points="126.12 372.95 160.01 360.9 128.86 371.98 126.12 372.95"/><polygon class="cls-1" points="126.12 372.95 160.01 360.9 128.86 371.98 126.12 372.95"/><polygon class="cls-3" points="27.45 384.5 0 417.8 0 417.8 0 417.8 27.45 384.5 27.45 384.5"/><polygon class="cls-1" points="27.45 384.5 0 417.8 0 417.8 0 417.8 27.45 384.5 27.45 384.5"/><polygon class="cls-3" points="122.95 268.6 142.98 244.29 122.95 268.6 122.95 268.6"/><polygon class="cls-1" points="122.95 268.6 142.98 244.29 122.95 268.6 122.95 268.6"/><path class="cls-4" d="M231.12,413.22c1.26-.44,2.53-.86,3.8-1.26C233.65,412.36,232.38,412.78,231.12,413.22Z" transform="translate(-49.25 -60.1)"/><path class="cls-1" d="M231.12,413.22c1.26-.44,2.53-.86,3.8-1.26C233.65,412.36,232.38,412.78,231.12,413.22Z" transform="translate(-49.25 -60.1)"/><path class="cls-4" d="M236.55,411.47c.65-.2,1.31-.38,2-.56C237.86,411.09,237.2,411.27,236.55,411.47Z" transform="translate(-49.25 -60.1)"/><path class="cls-1" d="M236.55,411.47c.65-.2,1.31-.38,2-.56C237.86,411.09,237.2,411.27,236.55,411.47Z" transform="translate(-49.25 -60.1)"/><polygon class="cls-5" points="113.08 377.59 126.12 372.95 113.08 377.59 113.08 377.59"/><polygon class="cls-1" points="113.08 377.59 126.12 372.95 113.08 377.59 113.08 377.59"/><polygon class="cls-5" points="167.93 358.08 167.93 358.08 160.01 360.9 167.93 358.08"/><polygon class="cls-1" points="167.93 358.08 167.93 358.08 160.01 360.9 167.93 358.08"/><path class="cls-6" d="M162.33,437.69l13-4.64,2.74-1L209.26,421l7.92-2.82-30.48-8.76C170.79,405,156.33,422.31,162.33,437.69Z" transform="translate(-49.25 -60.1)"/><path class="cls-5" d="M252.4,408l.35-.06Z" transform="translate(-49.25 -60.1)"/><path class="cls-1" d="M252.4,408l.35-.06Z" transform="translate(-49.25 -60.1)"/><path class="cls-5" d="M261.41,407.08l.59,0Z" transform="translate(-49.25 -60.1)"/><path class="cls-1" d="M261.41,407.08l.59,0Z" transform="translate(-49.25 -60.1)"/><path class="cls-5" d="M246.32,409l.82-.16Z" transform="translate(-49.25 -60.1)"/><path class="cls-1" d="M246.32,409l.82-.16Z" transform="translate(-49.25 -60.1)"/><path class="cls-5" d="M264.75,406.93h0Z" transform="translate(-49.25 -60.1)"/><path class="cls-1" d="M264.75,406.93h0Z" transform="translate(-49.25 -60.1)"/><polygon class="cls-7" points="27.45 104.56 27.45 386.48 123.63 269.76 27.45 104.56"/><path class="cls-8" d="M297.5,410.91q-3.87-1.08-7.8-1.87c.91.18,1.82.38,2.73.58Q295,410.21,297.5,410.91Z" transform="translate(-49.25 -60.1)"/><polygon class="cls-8" points="314.57 268.6 294.54 244.29 314.57 268.6 314.57 268.6"/><path class="cls-8" d="M486.77,477.9l-27.44-33.31h0l27.44,33.31L369,436l-9.67-3.44-39.3-14h0l-15.14-5.39h0Z" transform="translate(-49.25 -60.1)"/><path class="cls-8" d="M299.48,411.47l1.63.49Z" transform="translate(-49.25 -60.1)"/><path class="cls-8" d="M274.61,407.08c1.72.11,3.43.25,5.13.43C278,407.33,276.33,407.19,274.61,407.08Z" transform="translate(-49.25 -60.1)"/><path class="cls-8" d="M280.52,407.6c.92.1,1.84.22,2.75.34C282.36,407.82,281.44,407.7,280.52,407.6Z" transform="translate(-49.25 -60.1)"/><path class="cls-8" d="M271.27,406.93q1.38,0,2.76.12Q272.65,407,271.27,406.93Z" transform="translate(-49.25 -60.1)"/><path class="cls-8" d="M283.62,408c1.76.25,3.52.55,5.27.88C287.14,408.55,285.38,408.25,283.62,408Z" transform="translate(-49.25 -60.1)"/><path class="cls-8" d="M270.56,406.92c-.85,0-1.7-.06-2.55-.06v0C268.86,406.88,269.71,406.9,270.56,406.92Z" transform="translate(-49.25 -60.1)"/><path class="cls-9" d="M49.25,477.9,268,620.59h0L486.77,477.9h0l-27.44-33.31v2L363.15,329.86l.67-1.16,95.51-163.56V444.59l27.44,33.31V60.1l-143,244.29H192.23L49.25,60.1V477.9L76.7,444.59V165.14L172.2,328.7l.68,1.16L76.7,446.58v-2L49.25,477.9l113.08-40.21c-6-15.38,8.46-32.69,24.37-28.27l30.48,8.76M246.32,409l.82-.16c1.75-.33,3.5-.63,5.26-.88l.35-.06c.92-.12,1.84-.24,2.76-.34l.77-.09c1.71-.18,3.42-.32,5.13-.43l.59,0,2.75-.12h.72c.85,0,1.69-.06,2.54-.06s1.7,0,2.55.06h.71q1.38,0,2.76.12l.58,0c1.72.11,3.43.25,5.13.43l.78.09c.92.1,1.84.22,2.75.34l.35.06c1.76.25,3.52.55,5.27.88l.81.16c.89.18,1.77.43,2.65.64l-2.22,1.53a31.3,31.3,0,0,1-44.23,0l-2.23-1.53C244.56,409.47,245.43,409.22,246.32,409ZM268,541.28h0L175.56,481l14.54-5.17L268,526.62h0l77.91-50.82L360.46,481Z" transform="translate(-49.25 -60.1)"/><polygon class="cls-4" points="456.21 399.11 456.21 399.11 456.21 399.11 456.21 399.11"/><polygon class="cls-8" points="456.21 399.11 456.21 399.11 456.21 399.11 456.21 399.11"/><polygon class="cls-5" points="311.21 420.88 296.67 415.71 218.76 466.53 218.76 481.18 311.21 420.88"/><polygon class="cls-6" points="296.67 415.71 218.76 466.53 218.76 466.53 140.85 415.71 126.31 420.88 218.76 481.18 218.76 481.18 311.21 420.88 296.67 415.71"/><polygon class="cls-5" points="310.12 372.5 319.79 375.93 270.81 358.52 270.81 358.52 310.12 372.5"/><polygon class="cls-8" points="310.12 372.5 319.79 375.93 270.81 358.52 270.81 358.52 310.12 372.5"/><path class="cls-6" d="M374.91,438.12c6-15.38-10.46-33.12-26.37-28.7l-28.47,9.2L369,436Z" transform="translate(-49.25 -60.1)"/><path class="cls-6" d="M289.7,409l-.81-.16c-1.75-.33-3.51-.63-5.27-.88l-.35-.06c-.91-.12-1.83-.24-2.75-.34l-.78-.09c-1.7-.18-3.41-.32-5.13-.43l-.58,0q-1.38-.07-2.76-.12h-.71c-.85,0-1.7,0-2.55,0s-1.69,0-2.54,0h-.72l-2.75.12-.59,0c-1.71.11-3.42.25-5.13.43l-.77.09c-.92.1-1.84.22-2.76.34l-.35.06c-1.76.25-3.51.55-5.26.88l-.82.16c-.91.18-1.82.38-2.73.58l2.31,1.59a31.3,31.3,0,0,0,44.23,0l2.3-1.59C291.52,409.42,290.61,409.22,289.7,409Z" transform="translate(-49.25 -60.1)"/><path class="cls-5" d="M283.27,407.94l.35.06Z" transform="translate(-49.25 -60.1)"/><path class="cls-8" d="M283.27,407.94l.35.06Z" transform="translate(-49.25 -60.1)"/><path class="cls-5" d="M274,407.05l.58,0Z" transform="translate(-49.25 -60.1)"/><path class="cls-8" d="M274,407.05l.58,0Z" transform="translate(-49.25 -60.1)"/><path class="cls-5" d="M279.74,407.51l.78.09Z" transform="translate(-49.25 -60.1)"/><path class="cls-8" d="M279.74,407.51l.78.09Z" transform="translate(-49.25 -60.1)"/><path class="cls-5" d="M270.56,406.92h0Z" transform="translate(-49.25 -60.1)"/><path class="cls-8" d="M270.56,406.92h0Z" transform="translate(-49.25 -60.1)"/><path class="cls-5" d="M288.89,408.88l.81.16Z" transform="translate(-49.25 -60.1)"/><path class="cls-8" d="M288.89,408.88l.81.16Z" transform="translate(-49.25 -60.1)"/><polygon class="cls-7" points="410.08 104.56 313.9 269.76 410.08 386.48 410.08 104.56"/></svg>