<svg id="Layer_1" data-name="Layer 1" xmlns="http://www.w3.org/2000/svg" viewBox="0 0 441.55 560.49"><defs><style>.cls-1{fill:#ffd3ff;}.cls-2,.cls-4{fill:#f86cff;}.cls-2{opacity:0.28;}.cls-3,.cls-5{fill:#fff;}.cls-5{opacity:0.26;}.cls-6{fill:#4958e2;}</style></defs><title>cfox-outline-white</title><polygon class="cls-1" points="0 399.11 0 399.11 0 399.11 0 399.11"/><polygon class="cls-2" points="0 399.11 0 399.11 0 399.11 0 399.11"/><path class="cls-3" d="M882.75,517.07,932,484.9l8.81-5.81,0,0,6-3.9V250.47h.2L947,60.1,793,298.61H659.51L505.47,60.1l0,248.94h0V475.59l5.87,3.84.33-.38L726.28,620.59l156.61-103.3ZM935.19,100.2l0,354.43L803.68,303.83ZM797.64,315.05,921,456.51,749.88,390.74a65.88,65.88,0,0,0-12-3.34ZM714.56,387.4a65.88,65.88,0,0,0-12,3.34l-27.83,10.7L647.15,411.6,626.62,420l-95.14,36.56L654.85,315.05ZM517.29,100.2,648.8,303.83,517.33,454.63Zm6.94,372.94,183-70.35a52.91,52.91,0,0,1,13.06-3.18l0,202.92Zm202-90.16-59.88-72.54H786.12Zm5.91,16.63a52.88,52.88,0,0,1,13.07,3.18l183.09,70.37L732.19,602.53Z" transform="translate(-505.47 -60.1)"/><polygon class="cls-4" points="27.53 402.24 27.53 402.24 27.53 402.24 27.53 402.24"/><polygon class="cls-5" points="27.53 402.24 27.53 402.24 27.53 402.24 27.53 402.24"/><polygon class="cls-6" points="27.53 402.24 27.53 402.24 27.53 402.24 27.53 402.24"/><polygon class="cls-5" points="27.53 402.24 27.53 402.24 27.53 402.24 27.53 402.24"/></svg>