<svg id="Layer_1" data-name="Layer 1" xmlns="http://www.w3.org/2000/svg" xmlns:xlink="http://www.w3.org/1999/xlink" viewBox="0 0 434.35 551.35"><defs><style>.cls-1{fill:url(#linear-gradient);}</style><linearGradient id="linear-gradient" x1="92.69" y1="262.84" x2="484.99" y2="346.57" gradientUnits="userSpaceOnUse"><stop offset="0" stop-color="#ff94ff"/><stop offset="0.51" stop-color="#9aceff"/><stop offset="1" stop-color="#1f4dcc"/></linearGradient></defs><title>cleverfox-outline</title><path class="cls-1" d="M427.11,498.38l48.43-31.64,8.67-5.72,0,0,5.88-3.84V236.13h.19l0-187.27L338.8,283.49H207.51L56,48.86l0,244.88h0V457.58l5.78,3.77.32-.37L273.2,600.21,427.25,498.59ZM478.7,88.31l0,348.65L349.33,288.62ZM343.39,299.66,464.74,438.81l-168.33-64.7a65.51,65.51,0,0,0-11.76-3.28Zm-81.72,71.17a65.06,65.06,0,0,0-11.76,3.28l-27.39,10.53-27.17,10-20.19,8.21-93.59,36L202.93,299.66ZM67.62,88.31,197,288.62,67.65,437Zm6.82,366.86L254.49,386a51.64,51.64,0,0,1,12.86-3.13l0,199.61Zm198.72-88.69-58.9-71.36h117.8ZM279,382.84A51.56,51.56,0,0,1,291.82,386l180.11,69.22L279,582.45Z" transform="translate(-55.98 -48.86)"/></svg>