<svg id="Layer_1" data-name="Layer 1" xmlns="http://www.w3.org/2000/svg" viewBox="0 0 432.56 554.14"><defs><style>.cls-1{fill:#fff;}.cls-2{fill:#f86cff;}.cls-3{fill:#fa92ff;}.cls-4{fill:#4958e2;}.cls-5{fill:#7883ea;}.cls-6{fill:#9ba3ef;}.cls-7{fill:#ffd3ff;}.cls-8{fill:#ffdeff;}.cls-9{fill:#250045;}.cls-10{fill:#5d4275;}.cls-11{fill:#fbaeff;}.cls-12{fill:#99c7ff;}.cls-13{fill:#b5bbf3;}.cls-14{fill:#b3d5ff;}.cls-15{fill:#c7e0ff;}.cls-16{fill:#fdd6ff;}.cls-17{fill:#7a5eea;}.cls-18{fill:#fdb6ff;}.cls-19{fill:#601e79;}.cls-20{fill:#b3aeff;}.cls-21{fill:#ffe7ff;}.cls-22{fill:#ffedff;}</style></defs><title>cleverfox-cartoon</title><path class="cls-1" d="M695.23,396.25l-1.61.49,1.61-.49" transform="translate(-510.05 -48.86)"/><path class="cls-1" d="M698.4,395.36l-1.22.33,1.22-.33m6.49-1.51L704,394l.87-.18" transform="translate(-510.05 -48.86)"/><path class="cls-1" d="M726.33,391.7c-.83,0-1.67,0-2.51.05.84,0,1.68,0,2.51,0h0" transform="translate(-510.05 -48.86)"/><polyline class="cls-2" points="124.69 368.72 158.19 356.81 127.4 367.76 124.69 368.72"/><path class="cls-2" d="M631.61,314.42l.67,1.15L537.19,431v-2l-27.14,32.93,111.8-39.76c-5.94-15.2,8.37-32.32,24.09-27.95l30.14,8.66L689.84,398h0c1.25-.45,2.5-.86,3.76-1.25l1.61-.49,1.95-.56c2.55-.7,5.12-1.32,7.71-1.84l.81-.16q2.59-.49,5.2-.87l.35-.05c.9-.13,1.81-.25,2.72-.35l.77-.08c1.69-.18,3.38-.32,5.07-.43l.58,0c.91-.05,1.81-.09,2.72-.12h.71c.84,0,1.68-.05,2.51-.05V290.39H651.42l-19.81,24" transform="translate(-510.05 -48.86)"/><path class="cls-3" d="M510.05,461.93h0m194.84-68.08.81-.16-.81.16m0,0,.81-.16-.81.16m6-1,.35-.05-.35.05m0,0,.35-.05-.35.05m3.07-.4.77-.08-.77.08m0,0,.77-.08-.77.08m5.84-.51.58,0-.58,0m0,0,.58,0-.58,0m3.3-.15h0m0,0h0m3.22-101.37H651.42l-19.81,24,.67,1.15L537.19,431v-2l-27.14,32.93L621.77,422.2a19.9,19.9,0,0,1-1.29-7.2c-.06-11.18,9.21-21.42,20.36-21.47h.09a18.75,18.75,0,0,1,4.91.66l.1,0,30.14,8.66L689.84,398h0c1.25-.45,2.5-.86,3.76-1.25h0l1.61-.49h0l1.95-.56h0l1.22-.33c1.26-.33,2.52-.65,3.8-.94h0c.6-.14,1.21-.27,1.82-.39l.87-.18h0l.81-.16c1.72-.33,3.46-.62,5.2-.87l.35-.05c.9-.13,1.81-.25,2.72-.35l.77-.08c1.69-.18,3.38-.32,5.07-.43l.58,0c.91-.05,1.81-.09,2.72-.12h.71c.84,0,1.68-.05,2.51-.05V290.39" transform="translate(-510.05 -48.86)"/><polyline class="cls-4" points="27.14 103.85 121.56 265.56 141.36 241.52 0 0 0 413.06 27.14 380.14 27.14 103.85"/><polyline class="cls-5" points="0 0 0 413.06 27.14 380.14 27.14 303.59 0 336.51 27.14 303.59 0 336.51 27.14 303.59 27.14 103.85 121.56 265.56 141.36 241.52 0 0"/><polyline class="cls-4" points="27.14 303.59 0 336.51 27.14 303.59"/><polyline class="cls-6" points="27.14 303.59 0 336.51 27.14 303.59"/><polyline class="cls-4" points="121.56 265.56 141.36 241.52 121.56 265.56"/><polyline class="cls-6" points="141.36 241.52 121.56 265.56 141.36 241.52"/><path class="cls-7" d="M726.33,524.58,634.94,465l14.37-5.11,77,50.24v-105A30.82,30.82,0,0,1,704.47,396l-2.27-1.57c-1.69.38-3.36.81-5,1.27l-1.95.56-1.61.49c-1.26.39-2.51.8-3.76,1.25h0L510.05,461.93,726.33,603V524.58" transform="translate(-510.05 -48.86)"/><path class="cls-8" d="M702.2,394.42c-1.69.38-3.36.81-5,1.27h0l-1.95.56h0l-1.61.49h0c-1.26.39-2.51.8-3.76,1.25h0l-14.1,5,.34.1-7.83,2.78-30.8,10.95-2.7,1-12.9,4.59c0-.06-.05-.13-.08-.19L510.05,461.93,726.33,603V524.58L634.94,465l14.37-5.11,77,50.24v-105A30.82,30.82,0,0,1,704.47,396l-2.27-1.57" transform="translate(-510.05 -48.86)"/><path class="cls-7" d="M689.86,398c1.25-.45,2.5-.86,3.76-1.25-1.26.39-2.51.8-3.76,1.25" transform="translate(-510.05 -48.86)"/><path class="cls-8" d="M693.62,396.74c-1.26.39-2.51.8-3.76,1.25,1.25-.45,2.5-.86,3.76-1.25" transform="translate(-510.05 -48.86)"/><path class="cls-7" d="M695.23,396.25l1.95-.56-1.95.56" transform="translate(-510.05 -48.86)"/><path class="cls-8" d="M697.18,395.69l-1.95.56,1.95-.56" transform="translate(-510.05 -48.86)"/><polyline class="cls-9" points="139.25 411 124.88 416.11 216.28 475.72 216.28 461.24 139.25 411"/><polyline class="cls-10" points="139.25 411 124.88 416.11 216.28 475.72 216.28 461.24 139.25 411"/><polyline class="cls-9" points="111.79 373.31 124.69 368.72 111.79 373.31"/><polyline class="cls-9" points="166.03 354.02 158.19 356.81 166.03 354.02"/><polyline class="cls-1" points="166.03 354.02 165.68 354.14 166.03 354.02"/><line class="cls-11" x1="166.03" y1="354.02" x2="166.03" y2="354.02"/><path class="cls-9" d="M621.85,422.17l12.9-4.59,2.7-1,30.8-10.95,7.83-2.79-30.14-8.66c-15.72-4.37-30,12.75-24.09,27.95" transform="translate(-510.05 -48.86)"/><path class="cls-9" d="M704.47,396a30.82,30.82,0,0,0,21.86,9.06V391.71c-.83,0-1.67,0-2.51,0h-.71c-.91,0-1.81.07-2.72.12l-.58,0c-1.69.11-3.38.25-5.07.43l-.77.08c-.91.1-1.82.22-2.72.35l-.35.05c-1.74.25-3.48.54-5.2.87l-.81.16c-.9.18-1.8.37-2.69.57l2.27,1.57" transform="translate(-510.05 -48.86)"/><path class="cls-10" d="M726.33,391.71h0c-.83,0-1.67,0-2.51,0h-.71c-.91,0-1.81.07-2.72.12l-.58,0c-1.69.11-3.38.25-5.07.43l-.77.08c-.91.1-1.82.22-2.72.35l-.35.05c-1.74.25-3.48.54-5.2.87l-.81.16h0L704,394c-.61.12-1.22.25-1.82.39l2.27,1.57a30.82,30.82,0,0,0,21.86,9.06V391.71" transform="translate(-510.05 -48.86)"/><polyline class="cls-9" points="200.85 343.95 201.19 343.9 200.85 343.95"/><polyline class="cls-11" points="201.19 343.9 200.85 343.95 201.19 343.9"/><polyline class="cls-9" points="209.75 343.05 210.34 343.02 209.75 343.05"/><polyline class="cls-11" points="210.34 343.02 209.75 343.05 210.34 343.02"/><polyline class="cls-9" points="194.84 344.99 195.64 344.83 194.84 344.99"/><polyline class="cls-11" points="195.64 344.83 194.84 344.99 195.64 344.83"/><polyline class="cls-9" points="213.06 342.9 213.76 342.89 213.06 342.9"/><polyline class="cls-11" points="213.76 342.89 213.06 342.9 213.76 342.89"/><polyline class="cls-9" points="203.92 343.56 204.68 343.48 203.92 343.56"/><polyline class="cls-11" points="204.68 343.48 203.92 343.56 204.68 343.48"/><polyline class="cls-12" points="27.14 382.1 122.22 266.7 121.56 265.56 27.14 380.14 27.14 382.1"/><line class="cls-5" x1="121.56" y1="265.56" x2="121.56" y2="265.56"/><line class="cls-13" x1="121.56" y1="265.56" x2="121.56" y2="265.56"/><polyline class="cls-14" points="121.56 265.56 27.14 380.14 27.14 382.1 122.22 266.7 121.56 265.56"/><polyline class="cls-12" points="27.14 103.85 27.14 380.14 121.56 265.56 27.14 103.85"/><polyline class="cls-14" points="27.14 103.85 27.14 380.14 121.56 265.56 27.14 380.14 121.56 265.56 27.14 380.14 121.56 265.56 27.14 103.85"/><polyline class="cls-12" points="27.14 380.14 121.56 265.56 27.14 380.14"/><polyline class="cls-15" points="121.56 265.56 27.14 380.14 121.56 265.56"/><path class="cls-16" d="M753.8,395.24l1.69.45-1.69-.45m-6-1.39.5.1-.5-.1" transform="translate(-510.05 -48.86)"/><path class="cls-16" d="M942.62,461.93h0M832,422.6h0l110.59,39.33L832,422.6m-7.16-2.55,2.14.76-.79-.28-1.35-.48m-62-22.06L791,408l-13.15-4.68-15-5.32" transform="translate(-510.05 -48.86)"/><path class="cls-16" d="M757.44,396.25l1.62.49-1.62-.49" transform="translate(-510.05 -48.86)"/><path class="cls-16" d="M726.33,391.7h0c.84,0,1.68,0,2.52,0-.84,0-1.68-.05-2.52-.05" transform="translate(-510.05 -48.86)"/><path class="cls-2" d="M728.85,391.75h.71l2.72.12.58,0c1.7.11,3.39.25,5.07.43l.77.08c.91.1,1.82.22,2.72.35l.34.05c1.75.24,3.48.54,5.22.87l.8.16c2.58.52,5.16,1.14,7.71,1.84l2,.56,1.62.49c1.25.39,2.51.8,3.76,1.25h0l15,5.32L806,394.22c15.73-4.37,32,13.17,26.08,28.38l-5.81-2.07,116.4,41.4L915.48,429v2L820.39,315.57l.67-1.15-19.8-24H726.33V391.7c.84,0,1.68,0,2.52.05" transform="translate(-510.05 -48.86)"/><path class="cls-2" d="M747.78,393.85l-.8-.16.8.16m0,0-.8-.16.8.16m-6-1-.34-.05.34.05m0,0-.34-.05.34.05m-3.06-.4-.77-.08.77.08m0,0-.77-.08.77.08m-5.84-.51-.58,0,.58,0m0,0-.58,0,.58,0m-3.3-.15h0m0,0h0m71.7-101.37H726.33V391.7c.84,0,1.68,0,2.52.05h.71l2.72.12.58,0c1.7.11,3.39.25,5.07.43l.77.08c.91.1,1.82.22,2.72.35l.34.05c1.75.24,3.48.54,5.22.87l.8.16h0l.5.1,2.2.47h0c1.11.26,2.21.53,3.32.82l1.69.45h0l2,.56h0l1.62.49h0c1.06.33,2.12.68,3.17,1h0l.18.06.15.06h0l.22.08h0l15,5.32L806,394.22a18.74,18.74,0,0,1,5-.68c11.68,0,22.31,10.86,22.33,22.37A18.12,18.12,0,0,1,832,422.6l110.59,39.33L915.48,429v2L820.39,315.57l.67-1.15-19.8-24" transform="translate(-510.05 -48.86)"/><polyline class="cls-2" points="316.16 371.67 316.95 371.95 321.97 373.74 321.97 373.74 316.16 371.67"/><polyline class="cls-4" points="405.43 103.85 405.43 380.14 432.56 413.06 432.56 0 291.2 241.52 311.01 265.56 405.43 103.85"/><path class="cls-17" d="M942.62,461.93h0m0-413.07L801.26,290.39l19.8,24,94.42-161.71V429l27.14,32.93V48.86" transform="translate(-510.05 -48.86)"/><path class="cls-7" d="M942.62,461.93,762.83,398h0c-1.25-.45-2.51-.85-3.76-1.25l-1.62-.49-2-.56c-1.66-.46-3.33-.89-5-1.27L748.2,396a30.82,30.82,0,0,1-21.87,9.06V510.1l77-50.24L817.74,465l-91.41,59.61V603L942.62,461.93" transform="translate(-510.05 -48.86)"/><polyline class="cls-2" points="316.95 371.95 316.95 371.95 321.97 373.74 321.97 373.74 316.95 371.95"/><path class="cls-18" d="M750.48,394.42,748.2,396a30.82,30.82,0,0,1-21.87,9.06V510.1l77-50.24L817.74,465l-91.41,59.61V603L942.62,461.93,832,422.6l-5-1.79-2.14-.76-8.21-2.92L791,408l-28.12-10h0l-.22-.08h0l-.15-.06h0l-.18-.06h0c-1.05-.36-2.11-.71-3.17-1h0l-1.62-.49h0l-2-.56h0c-1.66-.46-3.33-.89-5-1.27" transform="translate(-510.05 -48.86)"/><path class="cls-7" d="M759.06,396.74c1.25.4,2.51.8,3.76,1.25-1.25-.45-2.51-.86-3.76-1.25" transform="translate(-510.05 -48.86)"/><path class="cls-18" d="M762.6,397.91l.22.08-.22-.08m0,0h0m-.15-.06.15.06-.15-.06m-.18-.06.18.06-.18-.06m0,0h0m-3.17-1c1.06.33,2.12.68,3.17,1-1.05-.36-2.11-.71-3.17-1" transform="translate(-510.05 -48.86)"/><path class="cls-7" d="M755.49,395.69l2,.56-2-.56" transform="translate(-510.05 -48.86)"/><path class="cls-18" d="M755.49,395.69l2,.56-2-.56" transform="translate(-510.05 -48.86)"/><polygon class="cls-9" points="307.68 416.11 293.31 411 216.28 461.24 216.28 475.72 307.68 416.11"/><polygon class="cls-9" points="307.68 416.11 293.31 411 216.28 461.24 216.28 475.72 307.68 416.11"/><polyline class="cls-9" points="306.61 368.27 316.16 371.67 267.75 354.45 306.61 368.27"/><polyline class="cls-19" points="267.75 354.45 306.61 368.27 316.16 371.67 267.75 354.45"/><path class="cls-9" d="M832,422.6c5.93-15.21-10.35-32.75-26.08-28.38l-28.15,9.09,48.42,17.22Z" transform="translate(-510.05 -48.86)"/><path class="cls-9" d="M832,422.6c5.93-15.21-10.35-32.75-26.08-28.38l-28.15,9.09,48.42,17.22Z" transform="translate(-510.05 -48.86)"/><path class="cls-9" d="M726.33,405.05A30.82,30.82,0,0,0,748.2,396l2.28-1.57q-1.35-.3-2.7-.57l-.8-.16c-1.74-.33-3.47-.63-5.22-.87l-.34-.05c-.9-.13-1.81-.25-2.72-.35l-.77-.08c-1.68-.18-3.37-.32-5.07-.43l-.58,0-2.72-.12h-.71c-.84,0-1.68,0-2.52,0v13.34" transform="translate(-510.05 -48.86)"/><path class="cls-9" d="M726.33,405.05A30.82,30.82,0,0,0,748.2,396l2.28-1.57q-1.35-.3-2.7-.57l-.8-.16c-1.74-.33-3.47-.63-5.22-.87l-.34-.05c-.9-.13-1.81-.25-2.72-.35l-.77-.08c-1.68-.18-3.37-.32-5.07-.43l-.58,0-2.72-.12h-.71c-.84,0-1.68,0-2.52,0v13.34" transform="translate(-510.05 -48.86)"/><polyline class="cls-9" points="231.37 343.9 231.71 343.95 231.37 343.9"/><polyline class="cls-2" points="231.37 343.9 231.71 343.95 231.37 343.9"/><polyline class="cls-9" points="222.23 343.02 222.81 343.05 222.23 343.02"/><polyline class="cls-2" points="222.23 343.02 222.81 343.05 222.23 343.02"/><polyline class="cls-9" points="227.88 343.48 228.64 343.56 227.88 343.48"/><polyline class="cls-2" points="227.88 343.48 228.64 343.56 227.88 343.48"/><polyline class="cls-9" points="218.8 342.89 219.5 342.9 218.8 342.89"/><polyline class="cls-2" points="218.8 342.89 219.5 342.9 218.8 342.89"/><polyline class="cls-9" points="236.92 344.83 237.72 344.99 236.92 344.83"/><polyline class="cls-2" points="236.92 344.83 237.72 344.99 236.92 344.83"/><polyline class="cls-12" points="311.01 265.56 405.43 380.14 311.01 265.56"/><polyline class="cls-12" points="310.34 266.7 405.43 382.1 405.43 380.14 311.01 265.56 310.34 266.7"/><polyline class="cls-20" points="311.01 265.56 311.01 265.56 310.34 266.7 405.43 382.1 405.43 380.14 311.01 265.56"/><polyline class="cls-12" points="405.43 103.85 311.01 265.56 405.43 380.14 405.43 103.85"/><polyline class="cls-20" points="405.43 103.85 311.01 265.56 405.43 380.14 405.43 103.85"/><path class="cls-1" d="M625.69,420.8l-3.84,1.37a1.34,1.34,0,0,1-.07-.18,1.34,1.34,0,0,0,.07.18h0l-.08,0h0l3.92-1.4-3.84,1.37,3.84-1.37-3.84,1.37,3.84-1.37m50-17.79-7.49,2.66-30.8,10.95-1.49.53,1.49-.53,30.8-10.95-9.63,3.43L675.74,403h0l-7.49,2.66,7.49-2.66-7.49,2.66,7.49-2.66" transform="translate(-510.05 -48.86)"/><polyline class="cls-11" points="158.19 356.81 127.4 367.76 125.9 368.29 148.56 360.23 158.19 356.81"/><path class="cls-11" d="M620.48,415a19.9,19.9,0,0,0,1.29,7.2l.08,0a1.34,1.34,0,0,1-.07-.18,19.85,19.85,0,0,1-1.3-7" transform="translate(-510.05 -48.86)"/><path class="cls-21" d="M675.74,403l-17.12,6.09-22.66,8-1.21.43-9.06,3.22,9.06-3.22-9.06,3.22,9.06-3.22-9.06,3.22-3.92,1.4c0,.06.05.13.08.19l12.9-4.59,2.7-1,30.8-10.95,7.83-2.78-.34-.1" transform="translate(-510.05 -48.86)"/><polyline class="cls-10" points="124.69 368.72 115.64 371.94 111.79 373.31 115.64 371.94 124.69 368.72"/><polyline class="cls-1" points="115.64 371.94 111.79 373.31 115.64 371.94"/><polyline class="cls-22" points="124.69 368.72 115.64 371.94 124.69 368.72"/><polyline class="cls-10" points="165.68 354.14 158.19 356.81 165.68 354.14"/><polyline class="cls-1" points="165.68 354.14 158.19 356.81 165.68 354.14"/><path class="cls-10" d="M640.92,393.75c-11.11,0-20.37,10.13-20.44,21.25a19.85,19.85,0,0,0,1.3,7h0a1.34,1.34,0,0,0,.07.18l3.84-1.37,9.06-3.22,1.21-.43,1.49-.53,30.8-10.95,7.49-2.66-29.8-8.57a18.74,18.74,0,0,0-5-.69" transform="translate(-510.05 -48.86)"/></svg>