<svg id="Layer_1" data-name="Layer 1" xmlns="http://www.w3.org/2000/svg" viewBox="0 0 453.77 535.67"><defs><style>.cls-1,.cls-7{fill:#f86cff;}.cls-2,.cls-6{fill:#fff;}.cls-2{opacity:0.26;}.cls-3{fill:#4958e2;}.cls-4{fill:#ffd3ff;}.cls-5{fill:#250045;}.cls-7{opacity:0.28;}.cls-8{fill:#f2f2f2;}</style></defs><title>Untitled-1</title><polygon class="cls-1" points="0 335.55 0 335.55 0 335.55 0 335.55"/><polygon class="cls-2" points="0 335.55 0 335.55 0 335.55 0 335.55"/><polygon class="cls-3" points="0 335.55 0 335.55 0 335.55 0 335.55"/><polygon class="cls-2" points="0 335.55 0 335.55 0 335.55 0 335.55"/><path class="cls-2" d="M464.27,503.57c1.67-.32,3.35-.61,5-.85C467.62,503,465.94,503.25,464.27,503.57Z" transform="translate(-257.39 -170.23)"/><path class="cls-2" d="M452.59,506.52l1.56-.48Z" transform="translate(-257.39 -170.23)"/><path class="cls-2" d="M478.47,501.82c.88-.05,1.76-.09,2.63-.11C480.23,501.73,479.35,501.77,478.47,501.82Z" transform="translate(-257.39 -170.23)"/><path class="cls-2" d="M463.49,503.72q-3.75.75-7.46,1.79,2.42-.67,4.85-1.23C461.75,504.08,462.62,503.9,463.49,503.72Z" transform="translate(-257.39 -170.23)"/><path class="cls-2" d="M484.22,501.66v0c-.81,0-1.62,0-2.43.05Z" transform="translate(-257.39 -170.23)"/><path class="cls-2" d="M469.63,502.67l2.64-.33Z" transform="translate(-257.39 -170.23)"/><path class="cls-2" d="M473,502.26c1.63-.17,3.26-.31,4.9-.41C476.27,502,474.64,502.09,473,502.26Z" transform="translate(-257.39 -170.23)"/><polygon class="cls-1" points="138.3 356.44 170.68 344.92 140.91 355.51 138.3 356.44"/><polygon class="cls-2" points="138.3 356.44 170.68 344.92 140.91 355.51 138.3 356.44"/><polygon class="cls-3" points="43.99 367.47 17.76 399.3 17.76 399.3 17.76 399.3 43.99 367.47 43.99 367.47"/><polygon class="cls-2" points="43.99 367.47 17.76 399.3 17.76 399.3 17.76 399.3 43.99 367.47 43.99 367.47"/><polygon class="cls-3" points="135.26 256.71 154.41 233.47 135.26 256.71 135.26 256.71"/><polygon class="cls-2" points="135.26 256.71 154.41 233.47 135.26 256.71 135.26 256.71"/><path class="cls-4" d="M449,507.72c1.2-.43,2.41-.82,3.63-1.2C451.37,506.9,450.16,507.29,449,507.72Z" transform="translate(-257.39 -170.23)"/><path class="cls-2" d="M449,507.72c1.2-.43,2.41-.82,3.63-1.2C451.37,506.9,450.16,507.29,449,507.72Z" transform="translate(-257.39 -170.23)"/><path class="cls-4" d="M454.15,506c.62-.19,1.25-.36,1.88-.53Z" transform="translate(-257.39 -170.23)"/><path class="cls-2" d="M454.15,506c.62-.19,1.25-.36,1.88-.53Z" transform="translate(-257.39 -170.23)"/><polygon class="cls-5" points="125.83 360.87 138.3 356.44 125.83 360.87 125.83 360.87"/><polygon class="cls-2" points="125.83 360.87 138.3 356.44 125.83 360.87 125.83 360.87"/><polygon class="cls-5" points="178.25 342.23 178.25 342.23 170.68 344.92 178.25 342.23"/><polygon class="cls-2" points="178.25 342.23 178.25 342.23 170.68 344.92 178.25 342.23"/><path d="M383.21,531.1l12.47-4.43,2.62-.93,29.77-10.59,7.57-2.69-29.14-8.38C391.3,499.86,377.48,516.4,383.21,531.1Z" transform="translate(-257.39 -170.23)"/><path class="cls-5" d="M469.3,502.72l.33-.05Z" transform="translate(-257.39 -170.23)"/><path class="cls-2" d="M469.3,502.72l.33-.05Z" transform="translate(-257.39 -170.23)"/><path class="cls-5" d="M477.91,501.85l.56,0Z" transform="translate(-257.39 -170.23)"/><path class="cls-2" d="M477.91,501.85l.56,0Z" transform="translate(-257.39 -170.23)"/><path class="cls-5" d="M463.49,503.72l.78-.15Z" transform="translate(-257.39 -170.23)"/><path class="cls-2" d="M463.49,503.72l.78-.15Z" transform="translate(-257.39 -170.23)"/><path class="cls-5" d="M481.1,501.71l.69,0Z" transform="translate(-257.39 -170.23)"/><path class="cls-2" d="M481.1,501.71l.69,0Z" transform="translate(-257.39 -170.23)"/><polygon class="cls-6" points="43.99 99.94 43.99 369.37 135.91 257.82 43.99 99.94"/><path class="cls-7" d="M512.4,505.51q-3.7-1-7.45-1.79c.87.18,1.74.36,2.61.56Q510,504.84,512.4,505.51Z" transform="translate(-257.39 -170.23)"/><polygon class="cls-7" points="318.4 256.71 299.26 233.47 318.4 256.71 318.4 256.71"/><polygon class="cls-7" points="435.91 399.3 409.68 367.47 409.68 367.47 435.91 399.3 323.38 359.29 314.15 356 276.58 342.64 276.58 342.64 262.11 337.5 262.1 337.49 262.11 337.5 435.91 399.3"/><path class="cls-7" d="M514.29,506l1.56.48Z" transform="translate(-257.39 -170.23)"/><path class="cls-7" d="M490.53,501.85c1.63.1,3.27.24,4.9.41C493.8,502.09,492.16,502,490.53,501.85Z" transform="translate(-257.39 -170.23)"/><path class="cls-7" d="M496.17,502.34l2.64.33Z" transform="translate(-257.39 -170.23)"/><path class="cls-7" d="M487.33,501.71c.88,0,1.76.06,2.64.11C489.09,501.77,488.21,501.73,487.33,501.71Z" transform="translate(-257.39 -170.23)"/><path class="cls-7" d="M499.13,502.72c1.69.24,3.37.53,5,.85C502.5,503.25,500.82,503,499.13,502.72Z" transform="translate(-257.39 -170.23)"/><path class="cls-7" d="M486.65,501.69c-.81,0-1.62-.05-2.43-.05v0Z" transform="translate(-257.39 -170.23)"/><path class="cls-8" d="M275.14,569.53,484.22,705.9h0L693.29,569.53h0L667.06,537.7v1.89L575.14,428.05l.65-1.11,91.27-156.32V537.7l26.23,31.83V170.23L556.64,403.71H411.79L275.14,170.23v399.3l26.24-31.83V270.62l91.27,156.32.65,1.11L301.38,539.59V537.7l-26.24,31.83L383.21,531.1c-5.73-14.7,8.09-31.24,23.29-27l29.14,8.38m27.85-8.74.78-.15c1.67-.32,3.35-.61,5-.85l.33-.05,2.64-.33.74-.08c1.63-.17,3.26-.31,4.9-.41l.56,0c.88-.05,1.76-.09,2.63-.11l.69,0c.81,0,1.62-.05,2.43-.05s1.62,0,2.43.05l.68,0c.88,0,1.76.06,2.64.11l.56,0c1.63.1,3.27.24,4.9.41l.74.08,2.64.33.32.05c1.69.24,3.37.53,5,.85l.78.15c.85.17,1.68.42,2.53.61l-2.13,1.46a29.9,29.9,0,0,1-42.27,0L461,504.33C461.8,504.14,462.64,503.89,463.49,503.72ZM484.22,630.1h0l-88.36-57.63,13.9-4.94,74.46,48.57h0l74.46-48.57,13.89,4.94Z" transform="translate(-257.39 -170.23)"/><polygon class="cls-4" points="453.77 381.44 453.77 381.44 453.77 381.44 453.77 381.44"/><polygon class="cls-7" points="453.77 381.44 453.77 381.44 453.77 381.44 453.77 381.44"/><polygon class="cls-5" points="315.19 402.24 301.29 397.3 226.83 445.87 226.83 459.87 315.19 402.24"/><polygon points="301.29 397.3 226.83 445.87 226.83 445.87 152.37 397.3 138.48 402.24 226.83 459.87 226.83 459.87 315.19 402.24 301.29 397.3"/><polygon class="cls-5" points="314.15 356 323.38 359.29 276.58 342.64 276.58 342.64 314.15 356"/><polygon class="cls-7" points="314.15 356 323.38 359.29 276.58 342.64 276.58 342.64 314.15 356"/><path d="M586.39,531.51c5.73-14.69-10-31.65-25.21-27.43L534,512.87l46.8,16.65Z" transform="translate(-257.39 -170.23)"/><path d="M505,503.72l-.78-.15c-1.67-.32-3.35-.61-5-.85l-.32-.05-2.64-.33-.74-.08c-1.63-.17-3.27-.31-4.9-.41l-.56,0c-.88-.05-1.76-.09-2.64-.11l-.68,0-2.43,0-2.43,0-.69,0c-.87,0-1.75.06-2.63.11l-.56,0c-1.64.1-3.27.24-4.9.41l-.74.08-2.64.33-.33.05c-1.68.24-3.36.53-5,.85l-.78.15c-.87.18-1.74.36-2.61.56l2.2,1.51a29.9,29.9,0,0,0,42.27,0l2.21-1.51C506.69,504.08,505.82,503.9,505,503.72Z" transform="translate(-257.39 -170.23)"/><path class="cls-5" d="M498.81,502.67l.32.05Z" transform="translate(-257.39 -170.23)"/><path class="cls-7" d="M498.81,502.67l.32.05Z" transform="translate(-257.39 -170.23)"/><path class="cls-5" d="M490,501.82l.56,0Z" transform="translate(-257.39 -170.23)"/><path class="cls-7" d="M490,501.82l.56,0Z" transform="translate(-257.39 -170.23)"/><path class="cls-5" d="M495.43,502.26l.74.08Z" transform="translate(-257.39 -170.23)"/><path class="cls-7" d="M495.43,502.26l.74.08Z" transform="translate(-257.39 -170.23)"/><path class="cls-5" d="M486.65,501.69l.68,0Z" transform="translate(-257.39 -170.23)"/><path class="cls-7" d="M486.65,501.69l.68,0Z" transform="translate(-257.39 -170.23)"/><path class="cls-5" d="M504.17,503.57l.78.15Z" transform="translate(-257.39 -170.23)"/><path class="cls-7" d="M504.17,503.57l.78.15Z" transform="translate(-257.39 -170.23)"/><polygon class="cls-6" points="409.68 99.94 317.75 257.82 409.68 369.37 409.68 99.94"/></svg>